<?xml version="1.0" standalone="no"?>
<!DOCTYPE svg PUBLIC "-//W3C//DTD SVG 20010904//EN"
 "http://www.w3.org/TR/2001/REC-SVG-20010904/DTD/svg10.dtd">
<svg version="1.0" xmlns="http://www.w3.org/2000/svg"
 width="1328.000000pt" height="1146.000000pt" viewBox="0 0 1328.000000 1146.000000"
 preserveAspectRatio="xMidYMid meet">

<g transform="translate(0.000000,1146.000000) scale(0.100000,-0.100000)"
fill="#000000" stroke="none">
<path d="M6300 10918 c-25 -5 -54 -13 -65 -17 -38 -16 -110 -35 -125 -32 -8 2
-20 11 -28 22 -17 25 -115 29 -106 4 5 -11 -1 -15 -26 -15 -20 0 -29 -4 -24
-11 4 -6 19 -8 38 -5 17 4 40 7 51 7 10 0 24 4 30 9 13 11 46 -12 37 -26 -4
-6 -23 -18 -43 -27 -20 -9 -42 -23 -49 -32 -7 -8 -18 -15 -25 -15 -7 0 -18 -7
-25 -15 -21 -25 -38 -18 -36 16 2 28 1 29 -11 13 -12 -17 -13 -17 -13 0 0 9
-4 15 -9 12 -5 -4 -19 -2 -31 2 -20 8 -20 9 -3 24 10 8 40 27 68 42 39 21 45
26 25 25 -14 0 -45 -11 -70 -24 -25 -14 -74 -39 -110 -56 -68 -34 -114 -73
-124 -107 -4 -11 -13 -26 -21 -32 -8 -7 -15 -18 -15 -24 0 -6 5 -4 10 4 8 12
10 11 10 -7 0 -13 -4 -23 -10 -23 -5 0 -10 -5 -10 -11 0 -7 10 -5 25 5 28 18
29 18 15 -18 -6 -17 -6 -26 1 -26 5 0 -13 -27 -40 -59 -48 -58 -91 -149 -91
-194 0 -16 -3 -18 -9 -9 -10 16 -3 61 13 81 8 11 8 13 -1 7 -7 -4 -20 -24 -28
-44 -9 -20 -25 -55 -36 -77 -11 -22 -26 -60 -33 -85 -12 -37 -14 -40 -15 -18
-1 32 36 146 54 168 30 36 72 140 56 140 -4 0 -12 -5 -19 -12 -7 -7 -12 -9
-12 -6 0 4 8 15 18 24 16 17 16 18 0 11 -14 -5 -18 -1 -18 14 0 18 -5 21 -30
17 -16 -3 -30 -1 -30 3 0 12 33 27 48 22 6 -3 12 2 12 11 0 23 -27 20 -48 -5
-9 -12 -23 -27 -29 -34 -19 -20 -16 -25 20 -26 17 0 25 -3 17 -6 -8 -4 -21
-15 -29 -26 -9 -12 -16 -15 -20 -8 -5 8 -13 7 -27 -4 -16 -13 -17 -16 -4 -25
12 -8 12 -10 -5 -8 -11 0 -33 0 -50 -1 -26 -2 -27 -3 -10 -11 11 -5 14 -9 6
-9 -7 -1 -11 -7 -7 -16 3 -8 0 -15 -7 -15 -7 0 -23 -10 -37 -21 l-25 -21 28 5
c15 2 27 1 27 -4 0 -4 -10 -9 -22 -12 -23 -4 -23 -4 2 -15 21 -9 22 -11 5 -11
-22 -1 -10 -16 20 -25 11 -3 -1 -3 -27 -1 -26 3 -61 2 -78 -1 -25 -5 -29 -11
-26 -29 3 -17 -1 -25 -15 -28 -12 -3 -31 -30 -49 -71 -32 -70 -39 -104 -15
-72 8 11 15 14 15 7 0 -6 6 -11 13 -10 40 5 61 -16 60 -58 -1 -7 3 -10 8 -7 5
3 9 -1 9 -10 0 -8 -3 -16 -7 -19 -5 -2 -3 -3 3 -1 6 1 17 -3 23 -9 9 -9 14 -9
19 0 5 8 16 4 37 -13 17 -13 26 -24 21 -24 -5 0 -18 7 -28 17 -10 9 -21 13
-25 10 -3 -4 6 -18 21 -31 l28 -23 -27 -7 c-18 -5 -31 -2 -39 7 -16 20 -44 28
-52 15 -7 -11 15 -30 26 -23 4 2 7 -2 7 -10 0 -8 -6 -15 -12 -15 -7 0 -18 -6
-24 -14 -10 -12 -7 -17 16 -29 15 -8 33 -12 40 -10 7 2 20 -1 30 -7 17 -11 17
-11 0 -6 -12 4 -17 2 -15 -6 3 -7 15 -15 29 -18 l24 -6 -24 -6 c-14 -4 -20
-11 -16 -18 7 -11 138 -13 178 -3 15 4 16 7 5 21 -11 14 -10 15 5 9 10 -4 28
-7 40 -8 21 0 20 -1 -3 -11 -31 -13 -12 -22 36 -16 19 2 34 1 34 -3 0 -4 12
-9 28 -11 24 -4 25 -5 8 -13 -11 -5 -26 -4 -37 3 -10 6 -19 7 -21 2 -2 -5 -38
-11 -80 -12 -48 -3 -83 -9 -90 -17 -11 -11 -8 -12 15 -7 15 3 27 2 27 -3 0 -4
-13 -11 -30 -14 -19 -4 -30 -13 -30 -23 0 -13 3 -14 13 -5 10 8 17 7 25 -1 9
-9 12 -9 12 0 0 7 7 12 16 12 8 0 13 4 10 8 -3 5 8 6 24 4 17 -2 38 -1 47 3
10 5 31 9 48 11 16 1 31 7 33 13 2 6 18 11 35 11 24 0 28 3 17 10 -8 5 -10 10
-4 10 5 0 15 -5 22 -12 9 -9 12 -9 12 1 0 10 19 12 80 9 44 -2 80 0 80 5 0 4
11 1 24 -8 22 -15 61 -11 51 5 -3 5 4 6 15 3 11 -3 20 -8 20 -12 0 -3 21 -7
46 -8 25 -1 54 -9 63 -17 19 -18 41 -21 41 -7 0 5 9 7 20 4 11 -3 20 0 20 6 0
6 7 8 17 4 10 -4 14 -2 10 4 -7 12 33 5 43 -6 7 -9 59 -31 72 -31 6 0 1 12
-13 27 l-24 26 36 -26 c21 -16 56 -30 83 -33 25 -4 49 -10 52 -15 7 -13 34 1
34 18 0 16 22 15 65 -2 11 -5 17 -5 13 0 -4 4 8 23 28 41 19 19 32 38 29 44
-9 14 5 12 38 -4 19 -11 27 -12 27 -3 0 9 2 9 8 0 8 -12 50 -12 71 1 6 4 14 0
17 -9 4 -9 13 -14 20 -11 8 3 14 2 14 -2 0 -4 35 -8 78 -9 99 -3 118 -8 125
-33 3 -11 9 -20 14 -19 20 3 34 -2 28 -11 -3 -5 -2 -10 3 -10 5 0 19 -9 32
-20 12 -11 26 -17 31 -15 4 3 10 1 14 -5 3 -5 17 -10 31 -10 21 0 23 -3 15
-18 -8 -15 -3 -25 29 -52 21 -19 37 -37 34 -41 -2 -4 0 -10 6 -14 6 -4 8 -10
5 -15 -3 -4 2 -10 10 -14 8 -3 15 -12 15 -20 0 -7 7 -16 15 -20 8 -3 15 -11
15 -19 0 -19 63 -82 98 -98 21 -9 27 -16 19 -21 -8 -5 -5 -10 11 -14 13 -4 46
-18 74 -33 38 -19 54 -34 61 -56 5 -16 11 -102 13 -190 4 -174 8 -232 17 -255
3 -8 13 -50 22 -93 10 -42 22 -80 27 -83 10 -7 8 -95 -3 -138 -5 -16 -11 -61
-14 -101 -5 -68 -4 -73 17 -87 22 -15 23 -19 17 -99 -4 -46 -8 -97 -9 -114
l-1 -30 -11 25 c-13 29 -17 92 -6 100 3 3 0 16 -8 30 -13 23 -14 20 -12 -43 2
-40 -1 -67 -7 -67 -5 0 -10 -15 -9 -32 1 -18 -3 -36 -9 -39 -17 -11 0 -38 21
-32 18 4 27 33 10 33 -4 0 -8 4 -8 10 0 5 7 7 15 4 16 -6 18 -64 3 -64 -4 0
-8 -5 -8 -11 0 -5 4 -8 9 -5 5 4 5 -10 0 -32 -5 -20 -9 -41 -9 -46 0 -5 -6 -3
-14 3 -16 13 -28 1 -23 -21 2 -7 2 -10 0 -5 -8 14 -35 7 -30 -7 10 -24 -47
-189 -75 -220 -9 -10 -24 -34 -33 -52 -9 -19 -24 -38 -35 -44 -10 -5 -29 -31
-42 -57 -30 -62 -54 -71 -43 -17 l7 39 -24 -27 c-13 -16 -29 -28 -35 -28 -6 0
-10 -8 -9 -17 0 -10 -5 -17 -12 -15 -7 1 -15 -5 -19 -15 -6 -15 -7 -15 -14 3
-7 18 -8 17 -8 -3 -1 -12 -6 -25 -12 -29 -8 -5 -8 -8 0 -14 18 -10 -3 -56 -28
-63 -13 -3 -21 -13 -21 -26 0 -12 -4 -21 -10 -21 -5 0 -10 -9 -10 -20 0 -10
-7 -23 -16 -28 -9 -5 -16 -21 -16 -36 0 -22 -4 -27 -19 -23 -13 4 -19 0 -19
-11 0 -15 -2 -15 -11 -2 -8 12 -9 11 -5 -5 7 -25 -18 -60 -35 -49 -8 5 -11 2
-7 -7 7 -18 -8 -59 -21 -59 -6 0 -8 7 -5 15 4 8 1 15 -5 15 -6 0 -11 -12 -12
-27 l-1 -28 -7 25 -7 25 -8 -30 c-7 -29 -8 -29 -22 -11 -12 17 -14 17 -14 3 0
-9 -11 -19 -25 -23 -14 -3 -25 -10 -25 -15 0 -5 -7 -9 -15 -9 -8 0 -15 -6 -15
-14 0 -20 -38 -27 -54 -10 -10 10 -16 10 -18 2 -5 -15 -39 -19 -55 -6 -9 7
-14 6 -19 -6 -5 -13 -9 -14 -21 -4 -13 10 -14 6 -12 -27 3 -24 -1 -40 -9 -43
-7 -2 -12 5 -12 17 0 30 -14 26 -27 -6 -10 -25 -11 -25 -12 -7 -1 12 -8 24
-15 27 -11 4 -13 1 -9 -11 5 -13 3 -14 -7 -5 -14 13 -40 6 -40 -11 0 -18 -47
-12 -72 10 -12 10 -18 13 -14 7 4 -7 2 -13 -3 -13 -6 0 -11 6 -11 14 0 8 -7
17 -16 20 -25 10 -30 6 -12 -7 11 -9 14 -18 7 -28 -7 -11 -9 -11 -9 4 0 9 -3
17 -7 18 -5 0 -16 2 -26 4 -10 2 -21 -3 -24 -11 -8 -21 -17 -17 -31 15 -14 32
-42 48 -52 30 -6 -8 -9 -8 -14 0 -4 6 -2 11 3 11 14 0 14 27 0 36 -6 3 -15 1
-19 -6 -5 -8 -9 -4 -14 12 -4 17 -8 20 -15 9 -6 -10 -12 -5 -22 18 -8 17 -18
31 -22 31 -5 0 -5 5 -2 10 10 16 -7 12 -27 -7 -16 -14 -21 -15 -28 -3 -5 8 -4
22 2 33 7 14 7 17 -1 13 -12 -7 -32 33 -24 47 6 11 -35 8 -42 -3 -3 -5 -1 -10
5 -10 6 0 8 -5 4 -11 -11 -19 -26 6 -27 46 -1 21 -3 32 -5 26 -3 -9 -10 -7
-25 6 -22 19 -22 20 0 -34 5 -12 3 -14 -8 -8 -8 5 -5 -2 6 -15 18 -21 18 -23
2 -17 -13 5 -16 3 -10 -6 4 -6 6 -19 5 -28 -2 -10 6 -19 18 -22 11 -3 20 -11
20 -17 0 -10 -3 -10 -15 0 -8 7 -15 9 -15 4 0 -5 14 -18 30 -29 16 -11 30 -27
30 -35 0 -17 74 -103 82 -95 3 3 20 -10 39 -30 19 -19 41 -35 49 -35 8 0 24
-7 34 -15 11 -8 29 -15 39 -15 30 0 116 -43 117 -59 0 -9 8 -11 25 -7 14 4 25
3 25 -2 0 -9 36 -11 223 -13 63 -1 107 -6 107 -11 0 -7 5 -7 13 -1 6 5 30 11
52 12 22 2 48 10 57 18 9 8 36 16 60 17 51 4 72 12 103 40 13 12 58 53 100 91
135 121 145 133 145 160 0 14 6 28 13 31 7 2 13 14 14 25 1 12 10 30 19 41 25
26 45 88 30 88 -6 1 0 10 13 20 13 11 18 20 11 20 -9 0 -10 3 -1 14 19 22 61
110 61 126 0 13 1 13 10 0 7 -11 10 -3 10 30 0 26 5 51 12 58 7 7 13 29 15 49
1 20 10 43 19 52 15 15 16 14 11 -4 -31 -110 -37 -399 -12 -550 19 -119 19
-157 -4 -246 -26 -101 -114 -283 -160 -333 -11 -11 -58 -61 -105 -111 -144
-153 -216 -238 -216 -254 0 -6 -4 -11 -10 -11 -5 0 -10 -6 -10 -14 0 -30 -90
-113 -191 -178 -14 -9 -39 -30 -55 -48 -25 -27 -84 -69 -147 -107 -24 -13 -50
-6 -43 13 3 7 -9 21 -28 32 -18 11 -44 29 -58 41 -13 12 -43 31 -67 44 -28 14
-51 36 -65 62 -11 22 -27 44 -33 48 -7 4 -13 16 -13 26 0 10 -7 24 -15 31 -8
7 -15 18 -15 25 0 12 -47 27 -119 39 -19 4 -52 22 -75 44 -23 20 -60 53 -82
72 -88 78 -194 227 -220 312 -8 29 -29 91 -45 137 -34 96 -36 151 -10 218 15
40 16 54 7 85 l-11 38 -33 -22 c-19 -11 -55 -52 -81 -89 -68 -96 -98 -129
-177 -189 -38 -30 -87 -69 -109 -87 -21 -18 -62 -45 -91 -58 -28 -13 -62 -36
-75 -50 -34 -37 -66 -52 -129 -60 -70 -9 -223 -56 -275 -84 -22 -12 -62 -35
-90 -51 -27 -16 -59 -29 -71 -30 -11 0 -56 -17 -100 -38 -68 -33 -90 -39 -156
-41 -43 -1 -96 -8 -119 -16 -23 -8 -50 -15 -59 -15 -10 0 -57 -18 -105 -40
-48 -22 -95 -40 -104 -40 -22 0 -170 -44 -213 -64 -18 -8 -43 -17 -54 -21 -12
-3 -27 -19 -34 -35 -7 -17 -17 -30 -22 -30 -5 0 -4 9 2 20 6 12 7 20 1 20 -5
0 -7 9 -4 20 3 11 9 17 14 15 4 -3 6 -13 2 -23 -3 -10 1 -8 12 6 9 13 14 26
11 29 -3 4 -6 0 -6 -7 0 -10 -5 -9 -18 3 -11 10 -28 14 -42 11 -24 -4 -25 -4
-2 5 24 11 30 31 10 31 -8 0 -9 3 -3 8 16 12 15 29 -3 45 -16 15 -18 15 -19
-6 -2 -15 0 -18 6 -8 5 8 11 9 15 3 3 -5 -3 -21 -15 -33 -11 -13 -18 -17 -16
-9 2 8 -3 21 -12 28 -13 11 -13 12 -1 6 12 -5 12 -4 3 6 -6 7 -9 19 -6 26 3 8
0 14 -7 14 -6 0 -9 -4 -6 -8 2 -4 -7 -8 -22 -9 -15 0 -19 1 -9 4 10 2 16 12
15 21 -2 10 3 16 11 14 11 -2 12 0 3 11 -7 8 -9 17 -5 21 4 4 0 4 -10 0 -13
-5 -16 -2 -11 10 4 11 1 16 -10 16 -23 0 -20 -25 5 -36 20 -9 20 -10 -8 -34
-24 -21 -25 -22 -9 -2 17 19 17 22 3 22 -10 0 -16 3 -16 8 1 4 1 18 0 32 -1
22 -3 23 -12 7 -8 -14 -14 -15 -32 -5 -12 6 -23 11 -24 10 -2 -1 -12 7 -22 17
-17 17 -17 20 -4 25 22 9 25 7 17 -6 -5 -10 -4 -10 6 -1 10 9 10 15 2 26 -7 8
-8 18 -4 22 4 5 1 5 -6 1 -7 -4 -9 -13 -6 -19 4 -7 4 -9 -1 -5 -4 4 -14 3 -22
-3 -17 -14 -17 2 0 20 9 11 9 14 0 18 -10 3 -10 10 -3 26 10 21 10 21 -6 0 -9
-13 -21 -23 -26 -23 -5 0 -3 10 3 23 l12 22 -24 -20 c-13 -11 -19 -13 -12 -6
6 7 9 20 6 29 -5 11 -1 14 14 10 12 -3 20 0 20 8 0 7 -5 10 -10 7 -6 -4 -8 2
-5 14 3 12 0 20 -7 20 -7 0 -12 -10 -11 -21 1 -13 -4 -20 -13 -18 -9 2 -12 -4
-8 -18 3 -11 2 -18 -3 -15 -4 3 -14 -10 -21 -28 -7 -17 -16 -34 -19 -37 -3 -3
-22 -28 -43 -56 -40 -55 -116 -119 -184 -153 -99 -50 -119 -51 -710 -51 l-553
0 0 -1500 0 -1500 510 0 c281 0 510 2 510 3 0 2 20 69 44 149 25 80 42 155 39
167 -7 26 29 84 70 115 31 24 155 56 213 56 15 0 41 8 58 19 17 10 66 31 110
46 75 25 88 26 276 27 190 0 310 -13 310 -32 0 -5 7 -7 15 -4 8 4 42 -7 75
-24 40 -21 60 -27 64 -19 2 7 5 5 5 -5 1 -11 9 -15 30 -14 19 1 34 -5 42 -16
8 -10 17 -18 21 -18 4 0 20 -13 35 -28 16 -16 36 -31 46 -35 9 -3 17 -11 17
-17 0 -5 7 -10 15 -10 9 0 12 -6 8 -16 -5 -13 -2 -15 15 -10 14 5 27 1 39 -11
10 -10 39 -25 63 -32 25 -8 39 -16 32 -18 -16 -6 3 -33 23 -33 7 0 24 -10 38
-22 14 -13 45 -36 68 -53 62 -45 96 -82 101 -110 3 -14 1 -25 -3 -25 -22 0 18
-37 57 -54 102 -42 164 -141 174 -277 4 -48 12 -95 19 -103 11 -13 11 -16 -3
-16 -13 0 -16 -11 -16 -54 0 -62 -1 -62 107 -61 40 0 73 -2 73 -5 0 -3 18 -6
40 -8 22 -1 40 1 40 5 0 5 17 7 38 5 20 -2 66 -3 101 -3 35 1 70 -4 77 -10 11
-9 14 -9 14 0 0 9 20 12 63 10 35 -1 69 1 75 5 7 4 12 3 12 -3 0 -5 11 -6 28
-2 16 5 40 2 60 -6 17 -7 32 -9 32 -5 0 5 28 12 63 15 120 12 140 15 148 28 7
13 21 17 69 23 14 1 32 5 40 8 8 3 49 12 90 19 41 7 80 15 85 19 6 4 33 15 60
25 28 10 57 24 66 31 8 8 19 14 24 14 5 0 16 7 24 14 9 8 32 18 51 21 19 3 39
10 45 15 6 5 33 14 60 21 28 6 54 15 58 19 5 4 -29 50 -75 101 -47 52 -90 104
-96 116 -15 28 -15 85 0 118 14 31 602 563 636 576 13 5 42 9 65 9 39 0 46 -5
122 -83 44 -45 98 -103 120 -127 226 -253 278 -310 284 -310 3 0 15 16 25 35
39 72 155 132 277 145 42 4 82 11 89 15 9 5 11 4 6 -3 -4 -7 -4 -12 1 -13 21
-2 52 -6 94 -13 31 -5 56 -2 82 9 40 17 113 20 122 6 3 -5 22 -15 43 -21 58
-17 132 -52 132 -62 0 -5 4 -7 9 -4 10 7 55 -42 80 -87 29 -53 32 -77 10 -95
-10 -9 -19 -24 -19 -34 0 -9 -8 -22 -18 -27 -18 -10 -24 -64 -10 -87 8 -12
-12 -64 -24 -64 -14 0 -9 -98 5 -103 6 -2 9 -7 5 -11 -3 -4 -15 -3 -26 3 -30
16 -46 -9 -38 -59 6 -39 -8 -57 -20 -25 -4 8 -10 12 -15 9 -10 -6 19 -39 35
-39 6 0 13 -13 15 -30 5 -29 5 -28 11 10 6 38 6 37 14 -29 7 -53 6 -70 -5 -77
-7 -4 -14 -27 -15 -51 -2 -31 0 -38 6 -23 5 11 9 14 9 8 1 -15 31 -18 31 -3 0
18 20 11 21 -7 0 -15 2 -15 9 2 7 17 9 15 9 -12 1 -30 -1 -31 -34 -28 -19 2
-32 -1 -29 -6 7 -12 -18 -37 -42 -41 -16 -2 -19 3 -19 32 0 20 -5 35 -12 35
-23 0 -27 16 -5 22 22 5 31 23 11 23 -6 0 -8 9 -4 20 9 30 -4 24 -16 -7 -7
-20 -13 -23 -21 -15 -17 17 -28 15 -28 -5 0 -13 -3 -14 -12 -5 -19 19 -30 14
-18 -9 12 -22 7 -49 -9 -49 -5 0 -17 7 -25 16 -14 13 -16 14 -16 0 0 -8 5 -18
10 -21 12 -8 13 -55 1 -55 -4 0 -6 -12 -3 -28 5 -24 4 -26 -11 -13 -15 12 -17
11 -17 -13 0 -14 -4 -26 -9 -26 -5 0 -11 -13 -14 -30 -4 -19 -11 -28 -20 -25
-8 4 -13 -3 -14 -15 -1 -12 5 -24 12 -27 12 -4 12 -7 -1 -21 -13 -12 -20 -13
-35 -4 -16 10 -19 9 -19 -3 0 -8 -7 -15 -15 -15 -8 0 -15 -6 -16 -12 0 -7 -5
-3 -11 9 -14 29 -25 29 -24 1 1 -16 -7 -24 -29 -30 -88 -22 -156 -37 -210 -46
-80 -13 -274 -81 -355 -124 -36 -19 -121 -69 -190 -112 l-125 -77 175 2 c96 2
181 7 188 12 6 5 12 6 12 1 0 -5 5 -2 10 6 7 11 10 11 10 2 0 -7 5 -10 10 -7
6 3 10 14 10 24 0 31 20 41 46 24 23 -15 24 -14 24 10 0 14 -6 28 -12 31 -7 3
-1 3 13 0 16 -3 32 0 41 10 9 8 19 12 23 8 3 -4 11 1 17 11 7 14 13 16 23 7
16 -14 35 -5 35 15 0 9 6 12 15 9 8 -4 15 -1 15 6 0 6 5 8 10 5 6 -4 17 -2 24
4 7 6 21 9 30 5 9 -3 16 -1 16 5 0 6 7 11 15 11 8 0 15 5 15 10 0 6 5 10 11
10 5 0 7 -5 3 -11 -3 -6 7 -4 23 4 16 9 45 18 66 22 23 5 37 13 37 22 0 12 3
13 13 4 8 -6 18 -7 23 -2 14 13 74 22 74 11 0 -11 40 8 51 24 4 4 10 3 13 -3
4 -6 12 -11 17 -11 6 0 7 5 4 10 -3 6 2 11 12 12 10 0 23 2 28 3 6 2 15 4 20
5 6 1 14 2 19 1 4 -1 13 2 20 7 18 15 80 23 96 12 10 -6 24 -3 45 9 16 11 50
22 75 26 25 4 50 10 55 14 6 3 24 6 40 7 17 0 55 6 86 13 30 8 74 12 97 9 23
-2 42 0 42 4 0 5 7 8 15 8 9 0 12 -6 9 -15 -4 -8 -2 -15 4 -15 6 0 12 5 14 12
2 6 13 12 24 13 10 1 32 7 48 14 24 10 30 9 41 -6 12 -16 14 -16 30 0 13 13
28 16 60 13 27 -3 49 0 61 8 10 8 25 11 33 8 10 -4 13 -1 8 11 -3 9 -2 17 4
17 6 0 7 5 4 11 -4 6 -12 8 -19 6 -7 -3 -13 4 -13 15 -1 14 3 18 13 14 9 -3
12 -2 9 5 -8 13 14 41 27 33 13 -8 40 17 34 32 -3 7 4 16 15 19 28 9 16 20
-38 35 -27 7 -57 19 -67 26 -28 19 -29 58 -1 88 13 14 26 34 30 45 3 10 12 24
19 30 8 7 12 20 9 31 -4 16 -9 17 -29 8 -13 -6 -24 -15 -24 -20 0 -4 -6 -8
-13 -8 -7 0 -24 -11 -39 -25 -15 -14 -32 -25 -38 -25 -5 0 -10 -4 -10 -8 0 -4
-14 -16 -32 -26 -30 -19 -31 -19 -44 0 -7 10 -18 24 -24 31 -5 7 -10 17 -10
22 0 17 -22 24 -31 10 -7 -11 -9 -9 -9 7 0 19 -5 21 -42 19 -48 -3 -88 23 -88
57 0 11 -4 28 -10 38 -19 36 -42 426 -40 688 0 23 18 63 42 93 19 23 111 86
155 105 123 53 327 76 485 55 49 -6 112 -14 140 -17 119 -11 222 -25 237 -33
9 -5 18 -9 21 -9 20 1 117 -16 125 -22 6 -4 30 -11 55 -15 25 -4 68 -18 97
-31 28 -13 54 -24 57 -24 13 0 140 -83 172 -113 20 -17 48 -52 62 -77 14 -25
27 -46 28 -48 1 -2 25 8 53 22 110 56 110 56 829 56 l665 0 -7 1143 c-3 628
-9 1663 -12 2300 l-7 1157 -742 0 c-653 0 -748 2 -796 16 -189 56 -336 205
-384 391 -74 283 105 583 392 658 48 13 173 15 791 15 l734 0 -4 118 c-5 139
-26 201 -96 295 -79 103 -198 168 -332 182 -39 5 -323 -25 -950 -99 -492 -58
-1308 -154 -1813 -213 l-918 -107 6 -49 c15 -103 20 -236 13 -322 -8 -97 -50
-290 -73 -335 -18 -34 -87 -87 -126 -95 -16 -4 -29 -13 -29 -21 0 -8 -4 -14
-10 -14 -12 0 -13 6 -1 28 15 28 31 107 31 156 0 29 9 62 25 92 14 26 25 57
25 70 0 13 16 40 36 61 35 38 35 39 29 103 -8 72 -19 100 -40 100 -20 0 -43
52 -37 89 2 17 8 31 12 31 5 0 12 10 15 21 6 17 9 19 16 8 6 -10 9 -5 9 16 l0
30 17 -30 c63 -114 63 -114 63 -217 0 -89 -3 -103 -29 -152 -30 -56 -33 -110
-5 -99 8 3 15 11 15 19 2 16 3 23 11 44 20 54 30 136 25 215 -11 174 -25 300
-36 328 -13 33 -34 35 -49 5 -9 -19 -11 -15 -8 29 2 28 -1 58 -6 65 -7 10 -8
8 -4 -4 10 -32 -13 -19 -30 17 -13 28 -15 53 -11 113 3 42 8 88 11 102 27 108
30 303 7 400 -6 25 -13 58 -16 74 -2 16 -9 34 -15 40 -5 5 -10 15 -10 21 0 5
5 3 10 -5 8 -12 10 -11 7 5 -1 11 -6 26 -11 33 -4 7 -9 23 -10 35 -3 26 -77
124 -137 182 -23 22 -53 56 -67 75 -15 19 -60 70 -102 113 -43 44 -78 91 -83
108 -5 21 -13 29 -22 25 -8 -3 -14 -2 -13 2 3 14 -14 42 -26 42 -6 0 -21 11
-34 25 -13 13 -58 40 -100 60 -42 20 -97 51 -122 69 -25 18 -56 36 -70 40 -14
4 -49 14 -79 22 -30 8 -84 30 -120 49 -136 71 -231 88 -351 63z m283 -45 c-7
-2 -19 -2 -25 0 -7 3 -2 5 12 5 14 0 19 -2 13 -5z m-373 -37 c-19 -7 -39 -10
-44 -7 -13 6 23 20 54 20 21 0 20 -2 -10 -13z m-100 -24 c-25 -9 -57 -25 -71
-35 -27 -18 -79 -32 -79 -22 0 6 90 48 135 63 50 17 63 12 15 -6z m-370 -32
c0 -5 -5 -10 -11 -10 -5 0 -7 5 -4 10 3 6 8 10 11 10 2 0 4 -4 4 -10z m187
-66 c-3 -3 -12 -4 -19 -1 -8 3 -5 6 6 6 11 1 17 -2 13 -5z m-247 -103 c0 -5
-7 -12 -16 -15 -14 -5 -15 -4 -4 9 14 17 20 19 20 6z m-235 -137 c-37 -32 -42
-30 -13 5 13 15 27 26 32 23 4 -2 -4 -15 -19 -28z m-35 -43 c0 -6 -4 -12 -8
-15 -5 -3 -9 1 -9 9 0 8 4 15 9 15 4 0 8 -4 8 -9z m153 -43 c-9 -24 -19 -56
-24 -73 -7 -24 -8 -22 -4 14 5 38 29 101 39 101 2 0 -3 -19 -11 -42z m445 1
c-10 -5 -18 -16 -18 -23 0 -7 -12 -23 -26 -37 -29 -27 -61 -92 -70 -142 -4
-17 -12 -37 -19 -42 -7 -6 -15 -19 -18 -30 -3 -15 -5 -13 -6 8 -1 17 4 27 13
27 8 0 15 17 19 50 3 27 14 62 24 77 31 50 95 123 106 123 7 0 4 -5 -5 -11z
m128 -106 c-14 -15 -26 -24 -26 -19 0 12 42 57 48 52 2 -3 -8 -17 -22 -33z
m-326 -50 c-11 -17 -11 -17 -6 0 3 10 6 24 7 30 0 9 2 9 5 0 3 -7 0 -20 -6
-30z m268 -15 c-2 -7 -7 -16 -12 -19 -8 -6 -11 -22 -15 -72 0 -10 -6 -15 -11
-12 -7 4 -9 -3 -5 -22 5 -19 4 -24 -3 -14 -8 11 -12 10 -21 -5 -6 -11 -11 -16
-11 -13 0 7 48 127 61 152 11 20 20 23 17 5z m-539 -68 c0 -10 -3 -8 -9 5 -12
27 -12 43 0 25 5 -8 9 -22 9 -30z m-400 -5 c-25 -42 -32 -45 -18 -8 8 23 25
42 36 43 1 0 -7 -16 -18 -35z m718 -107 c-2 -13 -4 -5 -4 17 -1 22 1 32 4 23
2 -10 2 -28 0 -40z m-90 -20 c-3 -7 -5 -2 -5 12 0 14 2 19 5 13 2 -7 2 -19 0
-25z m53 -110 c11 -24 14 -36 7 -28 -15 17 -39 70 -32 70 2 0 14 -19 25 -42z
m177 20 c-3 -8 -6 -5 -6 6 -1 11 2 17 5 13 3 -3 4 -12 1 -19z m-215 -53 c9
-17 9 -18 -3 -8 -8 6 -22 26 -32 45 l-19 33 21 -25 c12 -14 27 -34 33 -45z
m232 -1 c3 -8 2 -12 -4 -9 -6 3 -10 10 -10 16 0 14 7 11 14 -7z m-834 -18 c0
-3 -4 -8 -10 -11 -5 -3 -10 -1 -10 4 0 6 5 11 10 11 6 0 10 -2 10 -4z m720
-49 c56 -51 57 -65 1 -17 -19 16 -38 27 -42 25 -4 -3 -14 6 -23 19 -25 39 4
26 64 -27z m-580 13 c-8 -5 -26 -9 -40 -9 -23 1 -23 2 5 9 43 11 52 11 35 0z
m275 -20 c3 -5 -1 -10 -10 -10 -9 0 -13 5 -10 10 3 6 8 10 10 10 2 0 7 -4 10
-10z m92 -16 c-3 -3 -12 -4 -19 -1 -8 3 -5 6 6 6 11 1 17 -2 13 -5z m394 -31
c13 -16 12 -17 -3 -4 -10 7 -18 15 -18 17 0 8 8 3 21 -13z m1506 -675 c-3 -8
-6 -5 -6 6 -1 11 2 17 5 13 3 -3 4 -12 1 -19z m91 -329 c2 -43 -12 -89 -28
-89 -6 0 -10 23 -9 53 0 28 3 46 6 39 2 -6 9 -9 14 -6 6 3 6 10 1 17 -5 7 -12
26 -16 42 l-7 30 19 -24 c10 -13 19 -41 20 -62z m1219 -551 c51 -48 15 -138
-56 -138 -47 0 -81 32 -81 79 0 72 84 109 137 59z m-1383 -520 c-8 -29 -17
-57 -19 -63 -1 -5 -2 15 -1 46 0 32 4 55 8 53 4 -2 9 0 13 6 14 22 13 8 -1
-42z m-14 -85 c-1 -5 -7 -19 -15 -33 -10 -18 -14 -20 -15 -8 0 23 11 48 21 48
5 0 9 -3 9 -7z m-38 -95 c-8 -8 -9 -4 -5 13 4 13 8 18 11 10 2 -7 -1 -18 -6
-23z m-345 -330 c-3 -8 -6 -5 -6 6 -1 11 2 17 5 13 3 -3 4 -12 1 -19z m-1156
-201 c-10 -9 -11 -8 -5 6 3 10 9 15 12 12 3 -3 0 -11 -7 -18z m4183 -743 c362
-203 388 -220 412 -266 32 -61 19 -92 -183 -453 -182 -324 -193 -341 -234
-362 -73 -39 -71 -39 -369 129 -63 36 -191 107 -283 159 -102 57 -177 105
-189 122 -29 41 -34 104 -10 147 10 19 64 118 120 220 260 478 269 490 360
490 39 0 83 -22 376 -186z m-6904 -24 c0 -5 -5 -10 -11 -10 -5 0 -7 5 -4 10 3
6 8 10 11 10 2 0 4 -4 4 -10z m105 -120 c3 -5 -1 -10 -10 -10 -9 0 -13 5 -10
10 3 6 8 10 10 10 2 0 7 -4 10 -10z m2852 -366 c35 -27 42 -54 18 -74 -20 -17
-75 3 -106 38 l-24 27 24 -20 c23 -18 24 -19 18 -2 -4 10 -7 23 -7 29 0 6 -9
8 -20 5 -17 -4 -18 -2 -9 15 14 26 58 18 106 -18z m288 -589 c25 -24 34 -76
17 -102 -22 -35 -94 -34 -117 1 -26 40 -27 70 -5 99 28 35 72 36 105 2z
m-4388 -647 c51 -48 15 -138 -56 -138 -47 0 -81 32 -81 79 0 72 84 109 137 59z
m8210 -840 c-3 -8 -6 -5 -6 6 -1 11 2 17 5 13 3 -3 4 -12 1 -19z m80 -410 c-3
-7 -5 -2 -5 12 0 14 2 19 5 13 2 -7 2 -19 0 -25z m-2035 -5 c10 -3 15 -9 12
-14 -3 -5 2 -6 10 -3 19 7 56 -13 56 -31 0 -20 -29 -19 -36 0 -4 8 -16 15 -28
15 -13 0 -33 12 -47 27 -21 23 -22 25 -4 18 11 -4 28 -10 37 -12z m172 -443
c13 0 45 -44 46 -61 0 -8 -7 -24 -15 -35 -8 -10 -15 -27 -15 -36 0 -12 -7 -16
-27 -13 -16 2 -31 4 -35 4 -5 1 -8 6 -8 12 0 6 8 8 18 5 16 -5 18 0 17 41 0
39 -4 48 -20 52 -29 5 -35 21 -17 42 14 16 18 17 32 4 9 -8 20 -15 24 -15z
m-119 -210 c-3 -5 -10 -10 -16 -10 -5 0 -9 5 -9 10 0 6 7 10 16 10 8 0 12 -4
9 -10z m-95 -301 c0 -5 -4 -9 -10 -9 -5 0 -10 7 -10 16 0 8 5 12 10 9 6 -3 10
-10 10 -16z m810 -219 c0 -5 -4 -10 -10 -10 -5 0 -10 5 -10 10 0 6 5 10 10 10
6 0 10 -4 10 -10z"/>
<path d="M9789 5891 c-27 -27 -29 -35 -29 -105 0 -41 5 -86 11 -100 14 -31 54
-48 105 -45 22 2 45 0 51 -4 7 -4 30 0 51 9 50 19 61 45 61 143 0 68 -3 76
-29 102 -27 27 -34 29 -110 29 -77 0 -83 -2 -111 -29z m213 -8 c10 -9 18 -29
18 -45 0 -31 -3 -33 -31 -17 -16 8 -18 14 -9 24 8 9 8 15 0 20 -5 3 -13 -1
-16 -9 -5 -14 -9 -14 -34 -1 -16 8 -36 15 -44 15 -19 0 -98 -133 -91 -153 3
-7 23 -22 43 -32 l37 -19 -28 -4 c-52 -6 -67 19 -67 116 0 116 6 122 118 122
65 0 90 -4 104 -17z m-125 -76 c-3 -9 6 -11 34 -9 31 3 39 1 39 -12 0 -13 -4
-15 -19 -6 -15 7 -23 6 -35 -6 -9 -8 -16 -20 -16 -25 0 -6 -5 -7 -11 -4 -6 4
-8 13 -5 20 3 8 0 15 -6 17 -14 5 -3 38 13 38 6 0 9 -6 6 -13z m129 -29 c6
-20 -42 -107 -64 -115 -15 -6 -95 32 -114 54 -6 7 -7 21 -3 30 6 16 8 16 15
-4 18 -47 52 -46 108 1 25 22 29 11 6 -22 -8 -12 -25 -22 -37 -22 -16 0 -18
-3 -10 -11 7 -7 18 -9 26 -6 18 7 60 77 46 77 -6 0 -9 7 -5 15 3 8 1 15 -4 15
-6 0 -10 7 -10 15 0 13 3 13 20 3 11 -7 23 -21 26 -30z m4 -93 c-22 -27 -31
-15 -13 16 13 22 19 26 21 14 2 -9 -2 -22 -8 -30z"/>
<path d="M6130 5699 c0 -5 11 -15 25 -21 14 -6 25 -15 25 -20 0 -4 7 -8 15 -8
8 0 12 6 9 13 -6 16 -74 48 -74 36z"/>
<path d="M6413 5078 c4 -26 26 -36 37 -18 12 19 1 40 -21 40 -14 0 -18 -6 -16
-22z"/>
<path d="M5542 10795 c-17 -37 -14 -45 4 -12 9 16 14 31 11 33 -2 2 -9 -7 -15
-21z"/>
<path d="M5516 10698 c-7 -30 -8 -83 0 -75 7 6 16 97 10 97 -2 0 -6 -10 -10
-22z"/>
<path d="M5552 10542 c-12 -19 -21 -36 -19 -38 8 -8 56 52 49 62 -4 7 -16 -2
-30 -24z"/>
<path d="M5065 10058 c-4 -10 -10 -16 -15 -13 -4 2 -5 -7 -2 -20 3 -16 11 -25
23 -25 25 0 29 11 14 45 -11 25 -14 27 -20 13z"/>
<path d="M5119 10028 c-9 -17 -3 -48 7 -48 8 0 14 5 14 10 0 6 -5 10 -11 10
-6 0 -9 7 -5 15 4 12 0 23 -5 13z"/>
<path d="M5090 9910 c0 -5 6 -10 14 -10 8 0 18 5 21 10 3 6 -3 10 -14 10 -12
0 -21 -4 -21 -10z"/>
<path d="M5006 9842 c-2 -4 -1 -14 5 -22 7 -12 9 -10 9 8 0 23 -5 28 -14 14z"/>
<path d="M5082 9808 c-19 -19 -14 -30 8 -18 11 6 20 15 20 20 0 14 -14 12 -28
-2z"/>
<path d="M5136 9786 c3 -7 -2 -16 -10 -19 -11 -4 -13 -1 -9 11 6 15 3 14 -15
-2 -23 -20 -31 -53 -10 -40 7 5 9 0 6 -14 -5 -19 -3 -20 13 -11 11 5 19 6 19
0 0 -5 -6 -11 -14 -14 -7 -3 -15 -16 -18 -29 -4 -19 0 -23 24 -24 22 -1 26 2
17 12 -12 15 -5 44 11 44 5 0 10 -7 10 -15 0 -19 4 -19 43 2 30 16 30 18 10
21 -22 3 -33 22 -14 22 12 0 2 38 -12 47 -6 3 -7 1 -3 -5 4 -7 2 -12 -4 -12
-6 0 -13 6 -16 14 -3 8 -12 17 -19 20 -9 3 -12 0 -9 -8z"/>
<path d="M5212 9669 c-13 -5 -21 -13 -18 -18 3 -4 -13 -28 -35 -52 -22 -24
-36 -45 -30 -47 9 -3 -4 -48 -19 -62 -3 -3 -6 -22 -7 -43 -2 -36 -1 -37 25
-31 35 9 43 14 38 23 -3 4 4 8 15 8 14 1 4 -13 -36 -53 -54 -52 -56 -72 -5
-37 42 29 193 164 228 205 30 34 63 54 47 28 -3 -5 -2 -10 4 -10 5 0 9 9 8 20
-1 17 -7 19 -37 16 -19 -3 -45 -5 -57 -5 -13 -1 -22 -6 -20 -13 1 -6 -6 -13
-15 -15 -11 -3 -15 1 -13 14 2 10 4 18 6 18 1 0 3 10 4 22 1 14 -4 23 -16 26
-11 3 -17 2 -14 -3 3 -4 -4 -10 -15 -13 -22 -6 -29 18 -7 26 6 3 8 5 2 6 -5 0
-20 -4 -33 -10z m-19 -84 c-3 -9 -8 -14 -10 -11 -3 3 -2 9 2 15 9 16 15 13 8
-4z m197 11 c0 -3 -4 -8 -10 -11 -5 -3 -10 -1 -10 4 0 6 5 11 10 11 6 0 10 -2
10 -4z m-124 -21 c-1 -8 -5 -17 -8 -21 -5 -4 -4 16 1 34 3 9 9 -1 7 -13z m57
-34 c4 -18 2 -18 -20 -8 -23 10 -23 12 -6 18 10 4 19 8 19 8 1 1 4 -8 7 -18z
m-113 -5 c0 -2 -7 -7 -16 -10 -8 -3 -12 -2 -9 4 6 10 25 14 25 6z m-50 -50 c0
-2 -8 -10 -17 -17 -16 -13 -17 -12 -4 4 13 16 21 21 21 13z"/>
<path d="M5390 9529 c-42 -17 -78 -59 -51 -59 5 0 13 9 16 20 3 11 12 20 19
20 7 0 21 7 32 15 22 17 19 18 -16 4z"/>
<path d="M5285 9462 c-11 -15 -19 -30 -17 -34 2 -7 -12 -12 -29 -10 -4 1 -15
-9 -25 -21 l-19 -22 24 20 c22 18 24 19 18 2 -4 -10 -7 -23 -7 -28 0 -6 -4 -8
-9 -4 -10 5 -24 -26 -19 -41 1 -5 -4 -20 -11 -32 -21 -39 -7 -34 18 6 13 20
32 49 43 64 17 26 17 27 1 21 -11 -4 -2 11 20 35 20 23 37 49 37 57 0 20 -2
19 -25 -13z"/>
<path d="M5179 9353 c-13 -16 -12 -17 4 -4 9 7 17 15 17 17 0 8 -8 3 -21 -13z"/>
<path d="M5261 9357 c-6 -8 -8 -17 -4 -20 3 -4 0 -13 -7 -22 -7 -9 -11 -17 -9
-19 2 -2 14 10 27 25 13 16 18 29 12 29 -6 0 -8 5 -5 10 9 15 -1 12 -14 -3z"/>
<path d="M5149 9298 c-12 -23 -12 -23 10 -4 23 21 26 26 11 26 -5 0 -15 -10
-21 -22z"/>
<path d="M5196 9224 c-4 -9 -4 -19 -1 -22 2 -3 7 3 11 12 4 9 4 19 1 22 -2 3
-7 -3 -11 -12z"/>
<path d="M5110 9189 c-7 -11 -9 -23 -6 -27 3 -3 6 0 6 6 0 6 8 9 18 6 13 -5
14 -4 3 4 -7 5 -10 15 -7 21 4 6 5 11 2 11 -3 0 -10 -9 -16 -21z"/>
<path d="M5156 9174 c-5 -14 -4 -15 9 -4 17 14 19 20 6 20 -5 0 -12 -7 -15
-16z"/>
<path d="M5209 9173 c0 -5 -2 -20 -4 -36 -2 -15 0 -25 5 -22 8 5 11 65 3 65
-1 0 -3 -3 -4 -7z"/>
<path d="M5172 9108 c-7 -7 -12 -19 -12 -27 0 -11 5 -8 16 7 18 25 15 39 -4
20z"/>
<path d="M5200 9070 c0 -5 -9 -10 -20 -10 -11 0 -20 -4 -20 -10 0 -5 7 -7 15
-4 10 4 15 0 15 -12 1 -16 3 -15 15 6 17 30 18 40 5 40 -5 0 -10 -4 -10 -10z"/>
<path d="M5166 9002 c-4 -7 -5 -16 -2 -19 11 -11 -16 -33 -40 -33 -27 0 -30
-8 -11 -34 12 -16 15 -14 41 24 15 23 26 49 24 58 -3 13 -5 14 -12 4z"/>
<path d="M5160 8920 c-6 -11 -8 -20 -6 -20 3 0 10 9 16 20 6 11 8 20 6 20 -3
0 -10 -9 -16 -20z"/>
<path d="M7172 8913 c-10 -4 -9 -8 4 -18 15 -11 14 -13 -11 -19 -16 -4 -32 -3
-38 3 -15 15 -40 14 -34 -1 2 -7 10 -12 16 -10 6 1 11 -2 11 -8 0 -13 -10 -13
-49 1 -24 9 -35 9 -44 0 -6 -6 -24 -11 -39 -11 -16 0 -36 -4 -46 -9 -9 -6 -34
-13 -55 -16 -25 -4 -50 -19 -76 -45 -22 -22 -35 -40 -29 -40 7 0 6 -5 -2 -14
-15 -20 -39 -9 -46 20 -10 40 -24 27 -25 -23 -1 -27 -1 -53 0 -60 1 -7 -10
-15 -23 -19 -14 -3 -28 -15 -31 -25 -4 -10 -11 -19 -16 -19 -5 0 -9 -26 -8
-57 1 -43 3 -52 9 -33 6 22 8 23 15 8 4 -10 11 -15 16 -12 5 3 7 9 4 14 -3 5
4 11 15 15 11 3 20 11 20 16 0 5 9 9 20 9 11 0 20 5 20 10 0 18 18 10 23 -10
7 -28 69 -28 97 0 15 15 32 19 72 18 29 -1 59 -6 66 -11 8 -7 12 -5 12 7 0 19
2 19 34 4 22 -9 29 -8 46 7 10 9 26 15 35 11 9 -3 18 0 21 7 7 18 59 20 74 2
7 -8 20 -15 29 -15 9 0 22 -5 28 -11 12 -12 41 -1 63 25 11 14 9 16 -11 16
l-24 0 25 20 c25 20 18 28 -9 11 -10 -7 -23 -2 -43 14 -39 33 -79 39 -242 32
-83 -3 -123 -2 -96 3 25 4 72 18 105 29 33 12 78 24 100 28 22 3 53 15 69 26
25 18 29 18 23 4 -8 -21 2 -22 30 -2 14 10 32 13 52 9 27 -6 30 -9 19 -22 -11
-13 -11 -14 2 -7 19 11 44 45 47 65 2 16 -65 80 -85 80 -7 0 -11 -4 -8 -8 5
-8 -50 -1 -99 12 -11 2 -26 2 -33 -1z m-5 -99 c-3 -3 -12 -4 -19 -1 -8 3 -5 6
6 6 11 1 17 -2 13 -5z m-17 -153 c0 -5 -7 -17 -16 -25 -8 -9 -20 -16 -25 -16
-10 0 -12 33 -2 43 10 10 43 8 43 -2z m-246 -59 c-13 -2 -36 -2 -50 0 -27 3
-27 3 12 31 l39 27 12 -27 c10 -26 9 -28 -13 -31z"/>
<path d="M5037 8863 c-3 -5 -2 -60 1 -123 l7 -115 13 60 c15 69 13 177 -5 182
-6 2 -13 0 -16 -4z"/>
<path d="M5247 8751 c-21 -37 -22 -52 0 -44 13 5 15 2 11 -15 -4 -13 0 -23 8
-26 8 -3 14 -11 14 -18 0 -9 -3 -8 -10 2 -12 19 -12 6 1 -50 5 -24 7 -56 3
-70 -6 -23 -7 -24 -14 -5 -5 12 -7 -11 -5 -53 3 -78 9 -97 20 -63 3 12 9 21
13 21 9 0 9 67 -1 76 -13 14 -7 27 8 14 11 -10 15 -6 22 19 11 43 4 123 -10
114 -6 -4 -8 0 -4 10 8 21 -15 65 -31 59 -8 -2 -10 5 -6 27 8 39 3 39 -19 2z"/>
<path d="M5905 8758 c18 -12 16 -13 -25 -19 -25 -3 -72 -13 -104 -22 -39 -11
-63 -13 -71 -7 -15 13 -118 5 -123 -9 -2 -6 -10 -11 -18 -11 -8 0 -14 -4 -14
-10 0 -12 113 -10 121 3 4 6 19 5 40 -3 53 -19 380 -35 356 -17 -7 5 -1 6 13
2 56 -15 105 -23 112 -19 15 10 8 26 -8 20 -13 -5 -14 -3 -7 6 16 21 11 48 -8
48 -10 0 -21 5 -24 10 -3 6 -11 10 -16 10 -6 0 -7 -5 -3 -12 4 -7 3 -8 -5 -4
-6 4 -9 11 -6 16 10 16 -16 22 -123 26 -90 4 -104 3 -87 -8z m175 -18 c24 -15
7 -19 -20 -5 -15 8 -19 14 -10 14 8 1 22 -3 30 -9z m68 -43 c6 -5 12 -14 12
-20 0 -7 -6 -4 -14 5 -7 10 -15 15 -18 12 -4 -3 -9 -1 -12 4 -7 12 13 10 32
-1z"/>
<path d="M7158 8743 c6 -2 18 -2 25 0 6 3 1 5 -13 5 -14 0 -19 -2 -12 -5z"/>
<path d="M5838 8595 c-101 -14 -152 -37 -186 -86 -15 -21 -15 -22 4 -15 10 4
24 9 29 10 6 1 16 6 24 10 8 5 30 9 49 8 26 -1 33 2 28 13 -5 15 31 48 44 40
8 -5 25 -73 22 -86 -1 -4 6 -5 16 -3 30 6 202 11 202 5 0 -3 25 -7 55 -8 61
-1 68 7 33 45 l-23 24 30 -4 c24 -2 30 1 30 16 0 42 -166 57 -357 31z m102
-25 c0 -5 -5 -10 -11 -10 -5 0 -7 5 -4 10 3 6 8 10 11 10 2 0 4 -4 4 -10z
m140 -12 c54 -31 51 -45 -10 -47 -34 0 -50 3 -50 12 0 18 12 57 17 57 2 0 22
-10 43 -22z m-170 2 c0 -5 -4 -10 -10 -10 -5 0 -10 5 -10 10 0 6 5 10 10 10 6
0 10 -4 10 -10z"/>
<path d="M5282 8382 c-10 -7 -10 -15 -1 -38 10 -26 12 -27 19 -9 5 15 3 56 -4
55 0 0 -7 -4 -14 -8z"/>
<path d="M5182 8358 c5 -15 28 -23 28 -10 0 5 -7 13 -16 16 -10 4 -14 1 -12
-6z"/>
<path d="M10916 8244 c-9 -8 -16 -19 -16 -24 0 -5 7 -16 16 -24 13 -14 56 -16
314 -16 258 0 301 2 314 16 9 8 16 19 16 24 0 5 -7 16 -16 24 -13 14 -56 16
-314 16 -258 0 -301 -2 -314 -16z"/>
<path d="M7540 8155 c0 -8 5 -15 10 -15 6 0 10 7 10 15 0 8 -4 15 -10 15 -5 0
-10 -7 -10 -15z"/>
<path d="M1776 8088 c3 -5 10 -6 15 -3 13 9 11 12 -6 12 -8 0 -12 -4 -9 -9z"/>
<path d="M1745 8080 c3 -5 2 -10 -2 -10 -5 0 -15 -19 -22 -42 -11 -33 -15
-158 -18 -536 l-4 -492 475 0 c464 1 476 1 476 20 0 14 -5 18 -16 13 -14 -5
-15 -3 -5 15 15 27 14 32 -3 26 -8 -3 -12 -12 -10 -19 3 -7 -1 -17 -8 -21 -9
-6 -6 -10 12 -15 22 -6 21 -7 -8 -6 -18 1 -31 6 -28 12 18 44 18 45 1 39 -15
-6 -16 -4 -6 14 7 12 8 22 4 22 -4 0 -1 5 7 10 13 8 12 10 -3 10 -11 0 -17 -6
-15 -16 2 -10 -3 -19 -11 -22 -8 -3 -11 0 -7 7 4 6 2 11 -5 11 -8 0 -8 4 1 15
11 13 10 14 -4 9 -11 -4 -16 -1 -16 11 0 9 5 13 11 10 6 -4 5 2 -3 14 -7 12
-22 21 -33 20 -17 0 -17 -2 5 -10 19 -8 21 -12 11 -19 -17 -10 -51 27 -51 55
0 10 -5 13 -12 9 -8 -5 -7 0 2 11 14 17 13 18 -2 13 -21 -9 -31 2 -16 19 9 11
7 12 -7 7 -12 -5 -16 -4 -11 4 3 6 -4 18 -16 26 -19 14 -20 16 -5 16 10 0 15
5 12 10 -4 6 -11 7 -17 4 -6 -4 -8 1 -3 15 5 17 2 21 -17 21 -13 0 -30 -6 -37
-12 -11 -10 -13 -10 -7 0 4 7 2 12 -6 12 -9 0 -9 3 2 10 9 6 11 10 3 10 -7 0
-10 6 -7 13 3 10 -5 12 -32 9 -26 -3 -35 -1 -30 7 4 7 16 9 26 6 10 -3 22 0
26 6 4 7 3 9 -4 5 -6 -3 -18 1 -27 10 -9 9 -24 14 -36 11 -16 -4 -18 -3 -9 8
13 16 -3 30 -22 19 -9 -5 -8 -2 1 9 8 10 11 20 7 24 -3 3 -6 2 -6 -4 0 -6 -7
-14 -16 -17 -8 -3 -12 -2 -9 4 3 6 1 10 -4 10 -6 0 -11 -5 -11 -12 0 -6 -2 -9
-5 -6 -9 8 6 38 16 32 5 -3 9 0 9 5 0 14 -23 14 -36 1 -6 -6 -15 -6 -24 1 -12
8 -11 9 5 7 15 -2 19 2 17 16 -3 13 1 17 11 13 17 -6 31 39 16 49 -5 3 -9 -4
-9 -15 0 -12 -7 -21 -16 -21 -8 0 -13 4 -9 9 3 5 0 13 -6 17 -8 4 -9 3 -5 -4
4 -7 2 -12 -3 -12 -11 0 -15 13 -12 38 1 6 -3 12 -9 12 -5 0 -10 -4 -10 -10 0
-5 -4 -10 -10 -10 -20 0 -9 29 13 33 l22 4 -23 2 c-13 0 -21 5 -17 10 3 5 1
12 -5 16 -5 3 -10 2 -10 -4 0 -6 -7 -8 -16 -4 -14 5 -13 8 7 20 15 9 17 12 5
9 -12 -4 -17 -2 -13 6 2 7 1 22 -4 33 -6 17 -8 15 -8 -10 -1 -22 -4 -26 -10
-15 -6 8 -7 18 -5 22 3 4 2 8 -3 8 -4 0 -13 11 -20 25 -8 17 -8 25 0 25 6 0 8
3 4 6 -14 14 -26 -8 -17 -31 5 -13 6 -27 1 -29 -4 -3 -8 0 -9 7 -2 12 -10 58
-11 66 -1 2 -8 -2 -16 -9 -10 -9 -15 -9 -15 -1 0 6 5 11 11 11 7 0 9 10 7 25
-3 13 -2 26 1 28 3 2 1 3 -6 1 -20 -5 -23 9 -5 23 16 12 16 13 -2 6 -14 -5
-17 -3 -11 7 5 9 4 11 -3 6 -16 -9 -15 -46 0 -46 6 0 2 -9 -11 -21 -24 -23
-41 -21 -19 2 7 8 14 30 15 50 2 34 1 35 -30 31 -24 -2 -28 -1 -17 7 8 5 17 8
21 5 4 -2 9 5 12 16 3 11 1 20 -4 20 -5 0 -9 -4 -9 -9 0 -5 -7 -11 -15 -15
-13 -4 -13 -2 -5 14 13 24 13 27 -5 27 -8 0 -12 -4 -9 -9 3 -4 -2 -8 -10 -8
-17 0 -31 -18 -21 -28 3 -3 10 0 16 8 13 21 4 -33 -10 -57 -14 -23 -14 -8 -1
18 13 24 2 25 -16 2 -12 -16 -12 -16 -7 5 3 14 -1 30 -12 42 -11 13 -14 20 -6
20 7 0 9 5 6 10 -4 6 -11 8 -16 5 -5 -3 -6 1 -3 9 3 9 10 13 15 10 5 -3 9 0 9
5 0 6 -7 11 -15 11 -8 0 -15 5 -15 10 0 6 5 10 10 10 6 0 10 4 10 8 0 5 -7 9
-15 9 -8 0 -13 -2 -10 -5 2 -3 0 -13 -5 -23 -7 -12 -6 -19 2 -21 8 -3 6 -7 -4
-11 -9 -3 -22 1 -29 9 -7 8 -8 14 -3 13 21 -4 26 2 14 16 -9 10 -9 15 -1 15 6
0 11 7 11 15 0 8 -5 15 -11 15 -5 0 -7 -4 -4 -10z m165 -180 c0 -5 -5 -10 -11
-10 -5 0 -7 5 -4 10 3 6 8 10 11 10 2 0 4 -4 4 -10z m-19 -37 c13 -17 13 -17
-6 -3 -11 8 -22 16 -24 17 -2 2 0 3 6 3 6 0 17 -8 24 -17z m131 -160 c-6 -2
-10 -9 -7 -13 3 -5 1 -11 -4 -14 -7 -5 -8 11 -2 32 1 1 7 2 14 1 9 0 9 -2 -1
-6z m128 -147 c0 -2 -7 -7 -16 -10 -8 -3 -12 -2 -9 4 6 10 25 14 25 6z m155
-195 c3 -5 1 -12 -5 -16 -5 -3 -10 1 -10 9 0 18 6 21 15 7z m77 -23 c-9 -9
-15 -9 -24 0 -9 9 -7 12 12 12 19 0 21 -3 12 -12z m-22 -12 c0 -2 -7 -9 -15
-16 -13 -11 -14 -10 -9 4 5 14 24 23 24 12z m40 -44 c0 -5 -7 -9 -15 -9 -8 0
-12 4 -9 9 3 4 9 8 15 8 5 0 9 -4 9 -8z m-33 -28 c-3 -3 -12 -4 -19 -1 -8 3
-5 6 6 6 11 1 17 -2 13 -5z m63 -70 c0 -8 -19 -13 -24 -6 -3 5 1 9 9 9 8 0 15
-2 15 -3z m94 -86 c-9 -14 -23 2 -17 18 4 12 8 13 14 3 4 -7 5 -17 3 -21z m9
-63 c-3 -9 -8 -14 -10 -11 -3 3 -2 9 2 15 9 16 15 13 8 -4z"/>
<path d="M1837 8053 c3 -7 6 -13 8 -13 2 0 5 6 8 13 3 8 -1 14 -8 14 -7 0 -11
-6 -8 -14z"/>
<path d="M1817 7985 c-3 -16 0 -24 7 -22 14 4 21 47 8 47 -5 0 -12 -11 -15
-25z"/>
<path d="M1986 7892 c-2 -4 -1 -14 4 -22 7 -11 9 -9 7 8 -1 24 -3 26 -11 14z"/>
<path d="M6749 7890 c-65 -11 -81 -22 -135 -90 -44 -57 -50 -60 -78 -54 -47
11 -66 7 -93 -18 -21 -19 -23 -20 -17 -4 5 14 4 17 -4 12 -7 -4 -12 -17 -13
-29 -1 -20 -2 -20 -8 3 -7 24 -7 24 -15 5 -7 -18 -9 -18 -15 -3 -6 16 -9 15
-36 -6 -17 -13 -26 -28 -22 -33 5 -4 15 1 23 11 12 17 14 17 14 3 0 -24 40
-49 57 -35 10 8 17 7 26 -6 10 -13 21 -16 55 -10 23 4 42 11 42 16 0 5 14 1
30 -9 20 -11 30 -25 30 -41 0 -15 5 -22 13 -19 6 2 12 15 12 28 0 14 6 24 15
24 8 0 20 3 25 6 6 3 37 5 70 4 70 -1 105 11 105 37 0 10 5 18 10 18 6 0 10
-7 10 -15 0 -8 4 -15 9 -15 13 0 7 83 -7 88 -7 2 -12 11 -13 20 0 11 -2 12 -6
5 -7 -18 -30 -16 -37 3 -3 9 -6 27 -6 40 0 13 -5 24 -11 24 -5 0 3 11 18 25
30 26 27 27 -48 15z"/>
<path d="M7495 7870 c-4 -6 -1 -18 7 -27 7 -9 12 -19 10 -22 -2 -3 1 -7 6 -9
5 -1 12 6 15 17 6 23 -27 59 -38 41z"/>
<path d="M1986 7841 c-3 -5 1 -14 8 -20 12 -10 13 -8 9 8 -6 23 -9 25 -17 12z"/>
<path d="M7113 7826 c7 -14 15 -26 20 -26 4 0 7 -10 7 -22 -1 -22 -2 -21 -16
5 -8 15 -19 27 -25 27 -6 0 -7 -4 -4 -10 4 -6 -6 -10 -22 -11 -53 -2 -58 -4
-57 -21 1 -14 -3 -15 -24 -7 -17 7 -29 6 -36 -1 -7 -7 -6 -10 2 -10 7 0 12 -7
12 -15 0 -8 -3 -14 -7 -14 -26 4 -34 -2 -28 -23 6 -17 4 -20 -9 -15 -9 4 -16
2 -16 -3 0 -6 5 -10 12 -10 8 0 7 -6 -4 -16 -9 -9 -44 -22 -79 -30 -78 -17
-89 -20 -111 -29 -11 -4 -18 -1 -21 12 -4 16 -5 16 -6 1 0 -10 -8 -18 -16 -18
-9 0 -12 6 -9 15 4 8 2 15 -3 15 -13 0 -53 -30 -53 -40 0 -14 40 -23 53 -12 7
5 39 13 72 17 88 12 88 12 108 20 14 6 17 2 17 -23 0 -39 -17 -85 -29 -78 -5
4 -18 -6 -30 -21 -17 -25 -22 -26 -40 -16 -18 11 -22 10 -32 -8 -6 -11 -8 -23
-5 -26 2 -3 -4 -14 -15 -26 -22 -24 -24 -37 -5 -37 7 0 20 -10 28 -21 12 -18
17 -20 35 -11 19 10 20 9 16 -9 -3 -11 -12 -23 -19 -26 -18 -7 -18 -23 1 -23
18 0 85 68 85 87 0 7 7 16 15 19 8 4 13 9 10 13 -2 4 8 21 23 38 15 16 43 54
62 84 33 50 54 77 106 135 l22 23 18 -21 c11 -12 13 -18 5 -13 -10 6 -12 2 -6
-16 4 -13 11 -28 15 -33 11 -11 30 1 30 20 0 8 6 14 14 14 8 0 16 7 20 15 3 8
1 15 -4 15 -6 0 -10 4 -10 10 0 5 6 7 14 4 11 -4 13 5 9 43 -6 55 -27 90 -71
116 l-31 18 12 -25z"/>
<path d="M2016 7828 c3 -5 10 -6 15 -3 13 9 11 12 -6 12 -8 0 -12 -4 -9 -9z"/>
<path d="M5940 7799 c-63 -53 -72 -63 -91 -101 -21 -42 -24 -90 -8 -137 12
-34 45 -46 34 -12 -3 11 -2 22 3 25 5 3 8 18 6 33 -2 16 -1 20 2 10 3 -9 9
-15 14 -12 5 3 11 1 15 -5 3 -5 1 -10 -4 -10 -6 0 -11 -6 -11 -12 0 -16 52
-18 62 -3 4 5 8 0 8 -12 0 -18 6 -23 25 -23 25 0 109 -45 155 -84 55 -46 119
-64 106 -30 -3 9 -6 18 -6 20 0 2 -7 4 -15 4 -17 0 -68 98 -59 112 3 4 -7 8
-21 8 -35 0 -146 29 -162 42 -12 10 -17 4 -14 -14 1 -11 -22 -5 -31 6 -4 6 -2
18 3 27 10 19 12 59 3 59 -17 0 -44 -23 -45 -38 0 -15 -1 -15 -8 1 -4 10 -10
18 -14 18 -4 -1 -7 1 -7 4 0 3 0 10 0 15 0 6 19 32 43 58 57 62 71 82 61 82
-5 0 -25 -14 -44 -31z"/>
<path d="M7360 7809 c0 -5 -4 -7 -10 -4 -6 4 -7 -5 -4 -23 4 -17 1 -32 -5 -36
-6 -4 -11 -22 -11 -41 0 -42 -9 -67 -22 -59 -6 4 -9 1 -7 -5 8 -23 24 -16 39
17 13 26 18 30 29 20 11 -11 12 -9 6 12 -15 52 -17 80 -6 80 6 0 10 11 9 25
-2 24 -18 37 -18 14z"/>
<path d="M2096 7745 c-9 -26 -7 -32 5 -12 6 10 9 21 6 23 -2 3 -7 -2 -11 -11z"/>
<path d="M7440 7741 c0 -6 5 -13 10 -16 6 -3 10 1 10 9 0 9 -4 16 -10 16 -5 0
-10 -4 -10 -9z"/>
<path d="M7390 7660 c0 -5 5 -10 11 -10 5 0 7 5 4 10 -3 6 -8 10 -11 10 -2 0
-4 -4 -4 -10z"/>
<path d="M2140 7629 c0 -11 4 -18 10 -14 5 3 7 12 3 20 -7 21 -13 19 -13 -6z"/>
<path d="M7300 7588 c0 -18 -5 -28 -15 -28 -9 0 -15 -9 -15 -24 0 -13 7 -26
15 -30 11 -4 15 2 15 20 0 14 4 33 9 43 6 10 6 23 0 32 -6 10 -9 7 -9 -13z"/>
<path d="M2230 7576 c0 -2 8 -10 18 -17 15 -13 16 -12 3 4 -13 16 -21 21 -21
13z"/>
<path d="M2208 7553 c6 -2 9 -10 6 -15 -4 -7 -2 -8 5 -4 13 9 5 26 -12 25 -9
0 -8 -2 1 -6z"/>
<path d="M5921 7534 c0 -11 3 -14 6 -6 3 7 2 16 -1 19 -3 4 -6 -2 -5 -13z"/>
<path d="M5520 7530 c0 -5 5 -10 10 -10 6 0 10 5 10 10 0 6 -4 10 -10 10 -5 0
-10 -4 -10 -10z"/>
<path d="M5877 7523 c-10 -9 -8 -15 9 -38 13 -17 16 -18 24 -5 6 9 10 10 10 3
0 -6 -4 -15 -10 -18 -14 -9 -12 -52 3 -58 17 -6 47 22 41 38 -3 7 -1 16 4 19
11 7 4 46 -8 46 -5 0 -11 -10 -13 -22 l-4 -23 -2 23 c0 12 -8 22 -16 22 -8 0
-15 5 -15 10 0 11 -13 13 -23 3z"/>
<path d="M2250 7495 c0 -8 4 -15 10 -15 5 0 7 7 4 15 -4 8 -8 15 -10 15 -2 0
-4 -7 -4 -15z"/>
<path d="M2290 7503 c0 -7 5 -15 10 -18 6 -3 10 -11 10 -17 0 -6 -7 -5 -17 3
-16 12 -17 12 -6 -2 7 -9 10 -19 6 -22 -3 -4 -1 -7 6 -7 20 0 24 28 7 52 -9
12 -16 17 -16 11z"/>
<path d="M2363 7451 c0 -11 5 -18 9 -15 4 3 5 11 1 19 -7 21 -12 19 -10 -4z"/>
<path d="M2330 7441 c0 -6 5 -13 10 -16 6 -4 8 -10 5 -15 -7 -11 5 -40 16 -40
6 0 4 10 -2 23 -7 12 -12 23 -11 25 6 8 0 32 -8 32 -5 0 -10 -4 -10 -9z"/>
<path d="M5590 7430 c0 -11 -4 -20 -10 -20 -5 0 -10 -6 -10 -12 1 -7 9 -3 20
10 11 13 24 21 30 17 5 -3 10 -4 10 -1 0 3 -9 10 -20 16 -17 9 -20 8 -20 -10z"/>
<path d="M6308 7413 c-14 -3 -15 -9 -7 -26 14 -30 62 -52 86 -39 15 9 12 11
-18 17 -31 6 -35 10 -31 31 4 24 2 26 -30 17z"/>
<path d="M5630 7397 c0 -10 -4 -15 -10 -12 -5 3 -10 4 -10 1 0 -3 9 -10 19
-16 25 -13 34 2 16 26 -14 18 -14 18 -15 1z"/>
<path d="M6630 7370 c0 -5 7 -10 16 -10 8 0 12 5 9 10 -3 6 -10 10 -16 10 -5
0 -9 -4 -9 -10z"/>
<path d="M5610 7350 c-10 -6 -11 -10 -2 -10 6 0 12 -6 12 -14 0 -8 8 -24 18
-36 l17 -21 24 25 c27 29 22 61 -8 51 -11 -3 -22 -1 -26 5 -8 12 -16 13 -35 0z
m50 -35 c0 -8 -2 -15 -4 -15 -2 0 -6 7 -10 15 -3 8 -1 15 4 15 6 0 10 -7 10
-15z"/>
<path d="M2427 7304 c-8 -8 1 -24 14 -24 5 0 9 7 9 15 0 15 -12 20 -23 9z"/>
<path d="M5710 7305 c0 -3 5 -14 12 -24 11 -17 4 -60 -8 -48 -5 5 -11 28 -13
50 -2 15 -19 6 -24 -13 -3 -11 -1 -17 4 -14 6 3 15 -8 21 -24 7 -17 20 -33 29
-35 15 -4 16 -2 6 15 -10 16 -9 21 6 29 9 6 17 15 17 22 -1 12 -50 54 -50 42z"/>
<path d="M2480 7260 c-9 -6 -10 -10 -3 -10 6 0 15 5 18 10 8 12 4 12 -15 0z"/>
<path d="M2480 7194 c0 -12 4 -12 20 -4 11 6 20 12 20 13 0 2 -9 3 -20 4 -12
1 -20 -4 -20 -13z"/>
<path d="M5766 7184 c-8 -21 -1 -28 18 -21 9 4 13 13 10 22 -8 20 -20 19 -28
-1z"/>
<path d="M5716 7176 c10 -8 21 -12 24 -10 5 6 -21 24 -34 24 -6 0 -1 -6 10
-14z"/>
<path d="M5810 7160 c0 -5 5 -10 11 -10 5 0 7 5 4 10 -3 6 -8 10 -11 10 -2 0
-4 -4 -4 -10z"/>
<path d="M2612 7134 c-1 -13 2 -24 6 -24 10 0 13 38 3 44 -3 3 -8 -6 -9 -20z"/>
<path d="M5765 7140 c3 -5 8 -10 11 -10 2 0 4 5 4 10 0 6 -5 10 -11 10 -5 0
-7 -4 -4 -10z"/>
<path d="M5870 7105 c0 -8 4 -15 10 -15 5 0 7 7 4 15 -4 8 -8 15 -10 15 -2 0
-4 -7 -4 -15z"/>
<path d="M2660 7037 c0 -14 4 -28 9 -32 6 -3 8 6 5 22 -7 37 -14 42 -14 10z"/>
<path d="M1116 6384 c-9 -8 -16 -19 -16 -24 0 -5 7 -16 16 -24 13 -14 49 -16
234 -16 185 0 221 2 234 16 9 8 16 19 16 24 0 5 -7 16 -16 24 -13 14 -49 16
-234 16 -185 0 -221 -2 -234 -16z"/>
<path d="M3357 6196 c-4 -10 -3 -15 3 -11 15 9 11 -17 -5 -39 -15 -19 -21 -46
-9 -33 4 3 15 2 24 -3 14 -8 19 -5 22 15 6 28 -1 31 -21 13 -11 -11 -11 -9 -2
10 7 12 17 20 23 16 7 -5 8 -2 3 6 -6 10 -4 12 9 7 11 -4 15 -3 11 4 -4 5 -12
8 -18 6 -7 -2 -17 3 -23 11 -9 13 -12 13 -17 -2z"/>
<path d="M3568 5928 c6 -6 18 -8 28 -6 14 3 12 5 -9 10 -19 3 -25 2 -19 -4z"/>
<path d="M3896 3414 c-5 -14 -4 -15 9 -4 17 14 19 20 6 20 -5 0 -12 -7 -15
-16z"/>
<path d="M3285 3260 c-66 -3 -113 -8 -105 -12 8 -3 89 -9 180 -12 214 -8 247
-18 613 -171 48 -20 104 -38 125 -41 30 -3 19 5 -63 46 -55 27 -107 50 -116
50 -8 0 -19 4 -25 9 -14 15 -173 82 -229 97 -27 8 -70 14 -95 14 -25 0 -61 4
-80 9 -60 15 -81 17 -205 11z"/>
<path d="M6949 2989 c-21 -21 -23 -28 -9 -49 13 -21 -6 -30 -65 -30 l-50 -1
23 -19 c13 -11 21 -24 17 -29 -3 -6 6 -13 20 -17 13 -3 22 -10 19 -15 -3 -5 6
-9 20 -9 29 0 33 -12 11 -30 -23 -19 -10 -23 22 -7 72 38 101 114 70 187 -18
42 -48 49 -78 19z"/>
<path d="M4556 2957 c3 -10 9 -15 12 -12 3 3 0 11 -7 18 -10 9 -11 8 -5 -6z"/>
<path d="M3340 2930 c34 -11 60 -11 35 0 -11 5 -29 8 -40 8 -16 0 -15 -2 5 -8z"/>
<path d="M11136 2564 c-9 -8 -16 -19 -16 -24 0 -5 7 -16 16 -24 23 -24 445
-24 468 0 9 8 16 19 16 24 0 5 -7 16 -16 24 -13 14 -49 16 -234 16 -185 0
-221 -2 -234 -16z"/>
<path d="M8261 2414 c0 -11 3 -14 6 -6 3 7 2 16 -1 19 -3 4 -6 -2 -5 -13z"/>
<path d="M2797 2413 c-14 -13 -7 -33 11 -33 26 0 34 11 21 27 -13 14 -22 16
-32 6z"/>
<path d="M1830 2306 c0 -100 1 -106 20 -106 20 0 21 5 18 102 -3 89 -5 103
-20 106 -16 3 -18 -7 -18 -102z"/>
<path d="M8280 2396 c0 -16 18 -31 27 -22 3 3 -2 12 -11 21 -14 14 -16 14 -16
1z"/>
<path d="M574 2391 c-30 -13 -64 -59 -64 -88 0 -54 48 -103 100 -103 53 0 100
49 100 104 0 56 -83 109 -136 87z m80 -47 c35 -35 5 -114 -44 -114 -49 0 -79
79 -44 114 8 9 28 16 44 16 16 0 36 -7 44 -16z"/>
<path d="M1110 2295 c0 -76 3 -95 14 -95 10 0 16 13 18 38 3 34 5 37 38 40 46
5 60 18 60 56 0 45 -16 56 -77 56 l-53 0 0 -95z m81 65 c25 -14 24 -36 -2 -50
-28 -16 -49 -6 -49 23 0 38 15 46 51 27z"/>
<path d="M2280 2295 l0 -95 54 0 c60 0 86 16 86 54 0 13 -7 29 -15 36 -13 11
-13 14 0 27 38 37 4 73 -71 73 l-54 0 0 -95z m78 69 c30 -9 29 -42 -2 -50 -30
-7 -46 1 -46 25 0 30 10 35 48 25z m17 -88 c16 -12 17 -16 6 -30 -7 -9 -26
-16 -42 -16 -24 0 -29 4 -29 23 0 13 3 27 7 30 11 11 38 8 58 -7z"/>
<path d="M4051 2371 c-54 -15 -84 -106 -49 -148 32 -38 100 -48 137 -19 24 19
41 71 32 101 -12 47 -71 80 -120 66z m73 -47 c9 -8 16 -28 16 -44 0 -36 -24
-60 -60 -60 -36 0 -60 24 -60 60 0 36 24 60 60 60 16 0 36 -7 44 -16z"/>
<path d="M990 2350 c-8 -5 -25 -7 -37 -3 -22 5 -23 3 -23 -71 0 -60 3 -76 14
-76 11 0 16 15 18 53 2 43 7 54 26 62 12 5 22 18 22 27 0 21 0 21 -20 8z"/>
<path d="M1320 2353 c-52 -20 -69 -94 -30 -133 46 -46 130 -9 130 57 0 52 -54
94 -100 76z m61 -55 c8 -14 6 -25 -6 -44 -19 -29 -50 -31 -65 -5 -14 28 -13
38 10 61 22 22 45 18 61 -12z"/>
<path d="M1520 2351 c-8 -6 -27 -7 -42 -4 l-28 6 0 -112 c0 -104 1 -111 20
-111 17 0 20 7 20 45 0 42 2 45 19 35 52 -28 101 6 101 69 0 31 -6 44 -26 60
-29 23 -42 25 -64 12z m50 -52 c16 -28 -12 -72 -43 -67 -28 4 -46 50 -27 72
18 23 57 20 70 -5z"/>
<path d="M1950 2353 c-34 -12 -50 -37 -50 -75 0 -62 49 -95 101 -68 13 7 19 7
19 0 0 -5 9 -10 20 -10 18 0 20 7 20 75 l0 75 -32 -2 c-18 -1 -40 1 -48 5 -8
3 -22 3 -30 0z m58 -45 c16 -16 15 -53 -3 -68 -33 -27 -81 15 -64 58 9 24 47
30 67 10z"/>
<path d="M2160 2350 c-8 -5 -25 -7 -37 -3 -22 5 -23 3 -23 -71 0 -61 3 -76 15
-76 11 0 15 11 15 41 0 47 14 79 35 79 8 0 15 9 15 20 0 23 0 23 -20 10z"/>
<path d="M2663 2345 c-41 -29 -27 -66 30 -80 15 -4 27 -13 27 -21 0 -16 -36
-19 -45 -4 -9 15 -35 12 -35 -5 0 -33 76 -47 105 -19 29 30 5 59 -70 88 -6 2
-5 9 2 17 10 10 17 10 37 0 32 -18 51 -11 34 11 -19 25 -59 31 -85 13z"/>
<path d="M2947 2353 c-4 -3 -23 -6 -42 -5 l-35 1 0 -74 c0 -68 2 -75 20 -75
18 0 20 7 20 55 0 59 18 82 52 64 14 -8 18 -22 18 -64 0 -48 2 -55 20 -55 18
0 20 7 20 55 0 46 -4 60 -25 80 -25 26 -37 30 -48 18z"/>
<path d="M3093 2350 c-73 -30 -47 -150 34 -150 26 0 63 25 63 43 0 11 -29 8
-49 -5 -22 -14 -51 -4 -51 17 0 12 12 15 55 15 47 0 55 3 55 19 0 45 -61 80
-107 61z m55 -32 c20 -20 14 -28 -23 -28 -24 0 -35 5 -35 14 0 24 39 33 58 14z"/>
<path d="M3253 2350 c-15 -6 -23 -18 -23 -33 0 -29 14 -43 53 -52 15 -4 27
-13 27 -21 0 -17 -31 -19 -47 -3 -6 6 -19 9 -29 7 -17 -3 -17 -5 4 -26 38 -38
119 -19 110 27 -3 13 -41 39 -83 55 -6 2 -5 9 2 17 10 10 17 10 37 0 32 -18
51 -11 34 11 -17 21 -56 30 -85 18z"/>
<path d="M3403 2345 c-41 -29 -27 -66 30 -80 15 -4 30 -11 33 -16 10 -16 -27
-22 -52 -9 -13 8 -27 11 -30 7 -13 -12 6 -37 32 -43 74 -19 111 45 45 78 -19
9 -38 21 -44 27 -15 15 20 26 38 11 8 -6 21 -10 30 -8 13 2 14 6 3 20 -19 25
-59 31 -85 13z"/>
<path d="M740 2292 c0 -44 5 -63 18 -75 22 -20 63 -22 80 -5 9 9 12 9 12 0 0
-7 7 -12 15 -12 12 0 15 15 15 75 0 59 -3 75 -14 75 -11 0 -16 -15 -18 -51 -3
-55 -21 -78 -52 -66 -12 5 -16 20 -16 62 0 48 -2 55 -20 55 -18 0 -20 -7 -20
-58z"/>
<path d="M1640 2306 c0 -25 4 -56 10 -70 11 -30 54 -44 82 -27 11 7 18 7 18 1
0 -5 9 -10 20 -10 18 0 20 7 20 75 0 68 -2 75 -20 75 -18 0 -20 -7 -20 -55 0
-51 -2 -55 -26 -61 -34 -9 -44 7 -44 69 0 40 -3 47 -20 47 -17 0 -20 -7 -20
-44z"/>
<path d="M2460 2291 c0 -76 13 -90 85 -89 l55 1 0 73 c0 67 -2 74 -20 74 -18
0 -20 -7 -20 -55 0 -42 -4 -57 -16 -62 -31 -12 -49 11 -52 66 -2 36 -7 51 -18
51 -11 0 -14 -14 -14 -59z"/>
<path d="M2800 2275 c0 -60 3 -75 15 -75 12 0 15 15 15 75 0 60 -3 75 -15 75
-12 0 -15 -15 -15 -75z"/>
<path d="M8080 2195 c0 -8 4 -15 10 -15 5 0 7 7 4 15 -4 8 -8 15 -10 15 -2 0
-4 -7 -4 -15z"/>
<path d="M8100 2122 c6 -13 14 -21 18 -18 3 4 -2 14 -12 24 -18 16 -18 16 -6
-6z"/>
<path d="M10605 2092 c11 -14 26 -21 37 -19 10 3 18 0 18 -5 0 -7 5 -6 14 1
11 9 16 9 22 0 4 -7 3 -9 -3 -6 -6 4 -14 -1 -17 -10 -6 -15 -8 -15 -17 -3 -8
13 -10 13 -18 1 -8 -13 -12 -13 -28 0 -17 13 -17 13 -4 -4 9 -11 21 -15 34
-11 16 5 19 3 13 -12 -4 -10 -4 -15 0 -11 4 4 16 -5 26 -20 12 -20 18 -23 18
-11 0 9 -6 19 -12 21 -10 4 -10 6 0 6 8 1 16 -8 19 -19 3 -11 13 -20 22 -21
12 0 11 -2 -4 -9 l-20 -9 20 -1 c18 0 18 -2 -5 -20 -15 -12 -18 -18 -7 -14 9
3 17 1 17 -4 0 -6 14 -9 30 -7 18 3 28 0 25 -5 -4 -6 -2 -10 4 -10 5 0 12 6
15 13 3 6 4 0 2 -15 -3 -23 1 -28 18 -28 11 0 17 -4 11 -8 -5 -4 -11 -14 -13
-22 -3 -12 -1 -13 9 -2 18 17 25 15 26 -8 1 -13 -2 -18 -10 -13 -7 3 -4 -3 7
-15 14 -16 23 -19 36 -12 18 9 40 -4 40 -24 0 -6 -7 -3 -15 8 -13 18 -14 18
-12 -3 1 -11 7 -21 14 -21 16 0 17 -12 2 -27 -8 -8 -7 -13 2 -18 7 -5 10 -4 6
2 -4 6 1 17 10 24 12 10 14 10 9 2 -5 -9 -1 -13 13 -13 11 0 23 -5 27 -12 4
-7 3 -8 -4 -4 -7 4 -12 5 -12 1 0 -3 10 -10 23 -15 17 -7 18 -9 5 -9 -11 -1
-18 -8 -17 -18 0 -11 3 -13 6 -5 2 6 9 12 14 12 4 0 5 -8 2 -17 -5 -13 -2 -15
12 -10 14 6 16 5 6 -6 -9 -12 -5 -18 21 -30 26 -13 28 -17 13 -17 l-20 -1 20
-9 c12 -5 14 -9 6 -9 -11 -1 -10 -5 4 -15 13 -10 25 -11 37 -5 11 6 19 5 24
-3 4 -7 3 -8 -4 -4 -7 4 -12 3 -12 -3 0 -5 5 -13 10 -16 6 -4 7 -11 4 -17 -7
-11 13 -28 35 -28 8 0 11 6 6 18 -5 14 -4 15 7 4 11 -11 9 -16 -7 -29 -14 -11
-16 -17 -7 -20 6 -3 12 -12 12 -21 0 -15 2 -15 10 -2 8 12 10 10 10 -9 0 -20
2 -22 16 -11 8 8 14 9 13 4 -4 -21 2 -26 19 -13 16 13 16 12 1 -6 -28 -35 -34
-52 -11 -32 25 23 45 13 39 -19 -2 -14 0 -27 6 -31 6 -3 7 -1 3 5 -4 7 -2 12
3 12 6 0 11 -4 11 -10 0 -5 8 -10 18 -11 11 -1 9 -4 -8 -9 -14 -4 -19 -8 -12
-9 9 -1 10 -6 2 -21 -10 -19 -10 -19 20 -2 16 9 28 23 25 30 -6 15 11 16 21 0
4 -6 2 -14 -5 -16 -8 -3 -6 -9 6 -19 17 -13 16 -13 -4 -4 -29 15 -32 14 -26
-7 3 -13 13 -18 34 -17 16 1 29 -2 29 -7 0 -4 -5 -8 -12 -8 -8 0 -9 -3 -2 -10
14 -14 44 -2 45 19 0 10 2 12 6 3 7 -18 -15 -42 -39 -42 -18 0 -18 -1 -4 -16
9 -8 14 -20 11 -25 -4 -5 2 -9 11 -9 14 0 15 3 6 12 -7 7 -12 17 -12 22 0 6 7
0 16 -12 8 -12 12 -28 8 -35 -4 -6 2 -3 14 7 12 11 22 15 23 10 0 -5 4 0 9 11
8 18 9 18 9 2 1 -11 -8 -21 -19 -24 -11 -3 -20 -12 -20 -20 0 -8 -5 -11 -12
-7 -10 5 -10 4 -1 -6 10 -11 18 -11 38 -2 15 7 24 8 21 3 -6 -8 16 -33 25 -28
2 1 1 -2 -3 -7 -13 -17 -9 -24 11 -19 10 3 22 0 26 -6 3 -6 3 -11 -2 -10 -4 1
-19 0 -33 -1 l-25 -2 25 -8 c21 -7 22 -8 5 -9 -18 -1 -18 -3 -3 -11 19 -12 57
-2 38 10 -8 5 -6 9 6 14 10 4 16 4 12 1 -3 -4 -2 -20 2 -37 8 -25 7 -29 -7
-24 -13 6 -14 4 -3 -9 7 -9 19 -14 26 -11 8 3 11 -4 9 -19 -1 -14 4 -26 14
-30 13 -5 14 -7 1 -15 -13 -8 -12 -10 3 -10 9 0 17 -5 17 -12 0 -6 3 -9 6 -6
3 4 1 15 -5 26 -8 15 -7 23 3 32 12 9 13 7 9 -11 -4 -15 0 -26 12 -35 11 -8
14 -14 7 -14 -6 0 -9 -7 -6 -15 4 -8 13 -15 21 -15 8 0 11 -5 7 -12 -5 -7 -2
-9 9 -5 11 4 15 1 12 -13 -3 -13 1 -17 11 -13 8 3 14 13 15 22 0 13 2 13 6 1
3 -8 12 -19 19 -23 8 -4 14 -16 13 -25 0 -14 -2 -14 -7 -2 -9 20 -37 23 -51 6
-14 -17 5 -34 21 -18 12 12 55 -7 63 -27 5 -12 3 -12 -12 0 -15 12 -16 12 -8
-1 10 -15 15 -35 17 -58 1 -9 6 -8 19 4 16 14 18 14 29 -5 6 -12 8 -26 5 -31
-3 -6 -4 -10 -1 -10 12 0 77 122 72 136 -3 8 -2 13 3 10 26 -16 31 102 31 718
l0 636 -583 0 c-440 0 -586 -3 -595 -12 -9 -9 -12 -9 -12 1 0 9 -18 12 -65 9
-36 -1 -65 -7 -65 -12 0 -5 -10 -1 -22 10 l-23 19 20 -23z m92 -68 c-3 -3 -12
-4 -19 -1 -8 3 -5 6 6 6 11 1 17 -2 13 -5z m103 -59 c0 -12 -19 -12 -23 0 -4
9 -1 12 9 8 7 -3 14 -7 14 -8z m-30 -15 c0 -5 -6 -10 -12 -10 -10 0 -9 -3 1
-9 8 -5 9 -11 3 -15 -14 -8 -24 8 -16 28 7 18 24 22 24 6z m114 -41 c-3 -5
-13 -8 -22 -8 -15 1 -15 2 0 6 16 4 16 6 3 19 -8 9 -15 21 -15 27 1 7 9 1 20
-12 11 -12 17 -27 14 -32z m70 -17 c3 -5 -1 -9 -9 -9 -8 0 -12 4 -9 9 3 4 7 8
9 8 2 0 6 -4 9 -8z m-68 -97 c-3 -10 -11 -13 -18 -9 -9 6 -9 9 -1 11 7 3 9 12
6 21 -5 13 -3 14 7 5 7 -6 10 -19 6 -28z m58 -1 c3 -8 2 -12 -4 -9 -6 3 -10
10 -10 16 0 14 7 11 14 -7z m30 0 c3 -8 2 -12 -4 -9 -6 3 -10 10 -10 16 0 14
7 11 14 -7z m56 -24 c0 -5 -2 -10 -4 -10 -3 0 -8 5 -11 10 -3 6 -1 10 4 10 6
0 11 -4 11 -10z m47 -5 c0 -8 -4 -12 -9 -9 -5 3 -6 10 -3 15 9 13 12 11 12 -6z
m-27 -20 c0 -8 -4 -15 -10 -15 -5 0 -7 7 -4 15 4 8 8 15 10 15 2 0 4 -7 4 -15z
m-10 -40 c0 -8 -2 -15 -4 -15 -2 0 -6 7 -10 15 -3 8 -1 15 4 15 6 0 10 -7 10
-15z m37 -47 c-3 -8 -6 -5 -6 6 -1 11 2 17 5 13 3 -3 4 -12 1 -19z m177 -140
c8 -5 7 -8 -1 -8 -7 0 -13 -5 -13 -11 0 -6 6 -9 13 -6 8 3 14 -1 14 -8 0 -19
-18 -14 -38 10 -13 15 -14 23 -5 37 7 13 12 14 15 6 2 -7 9 -16 15 -20z m41
-68 c3 -5 1 -10 -4 -10 -6 0 -11 5 -11 10 0 6 2 10 4 10 3 0 8 -4 11 -10z
m-22 -34 c4 -10 1 -13 -8 -9 -8 3 -12 9 -9 14 7 12 11 11 17 -5z m77 -40 c0
-20 -17 -29 -26 -15 -4 8 -3 9 4 5 7 -4 12 -3 12 3 0 5 -6 12 -12 14 -8 3 -6
6 5 6 9 1 17 -5 17 -13z m47 -82 c-3 -3 -12 -4 -19 -1 -8 3 -5 6 6 6 11 1 17
-2 13 -5z m56 -21 c-7 -2 -19 -2 -25 0 -7 3 -2 5 12 5 14 0 19 -2 13 -5z m-18
-23 c3 -6 -1 -7 -9 -4 -18 7 -21 14 -7 14 6 0 13 -4 16 -10z m30 -58 c-3 -3
-11 0 -18 7 -9 10 -8 11 6 5 10 -3 15 -9 12 -12z m104 -36 c9 -11 9 -16 -1
-22 -7 -4 -10 -4 -6 1 4 4 3 14 -3 22 -6 7 -9 13 -6 13 2 0 10 -6 16 -14z
m-39 -6 c0 -5 -2 -10 -4 -10 -3 0 -8 5 -11 10 -3 6 -1 10 4 10 6 0 11 -4 11
-10z m-20 -20 c0 -5 -2 -10 -4 -10 -3 0 -8 5 -11 10 -3 6 -1 10 4 10 6 0 11
-4 11 -10z m54 -33 c-3 -8 -11 -14 -19 -14 -21 0 -19 15 3 20 9 3 18 5 19 6 1
0 0 -5 -3 -12z m56 -47 c0 -5 -5 -10 -11 -10 -5 0 -7 5 -4 10 3 6 8 10 11 10
2 0 4 -4 4 -10z m35 -39 c-3 -6 -11 -11 -16 -11 -5 0 -4 6 3 14 14 16 24 13
13 -3z m-31 -106 c-4 -8 -8 -15 -10 -15 -2 0 -4 7 -4 15 0 8 4 15 10 15 5 0 7
-7 4 -15z m96 1 c0 -8 -7 -16 -15 -20 -12 -4 -13 -2 -2 14 14 24 17 25 17 6z
m23 -6 c-3 -12 -8 -19 -11 -16 -5 6 5 36 12 36 2 0 2 -9 -1 -20z m-63 -9 c0
-6 -4 -12 -8 -15 -5 -3 -9 1 -9 9 0 8 4 15 9 15 4 0 8 -4 8 -9z m81 -41 c5 0
5 -6 -2 -12 -9 -10 -89 -21 -89 -12 0 1 8 8 17 15 11 10 14 10 9 2 -4 -7 -2
-13 4 -13 6 0 13 7 17 16 3 8 12 13 20 10 8 -3 19 -6 24 -6z m33 -18 c3 -5 -1
-9 -9 -9 -8 0 -12 4 -9 9 3 4 7 8 9 8 2 0 6 -4 9 -8z m89 -49 c-7 -2 -19 -2
-25 0 -7 3 -2 5 12 5 14 0 19 -2 13 -5z m12 -25 c3 -3 -3 -8 -15 -11 -13 -3
-18 -1 -13 6 4 6 0 8 -10 4 -9 -3 -19 -2 -22 2 -5 10 51 9 60 -1z m-165 -18
c0 -5 -5 -10 -11 -10 -5 0 -7 5 -4 10 3 6 8 10 11 10 2 0 4 -4 4 -10z m123
-25 c-3 -9 -8 -14 -10 -11 -3 3 -2 9 2 15 9 16 15 13 8 -4z m30 -32 c-3 -7 -6
-13 -8 -13 -2 0 -5 6 -8 13 -3 8 1 14 8 14 7 0 11 -6 8 -14z m-53 -7 c0 -9
-30 -14 -35 -6 -4 6 3 10 14 10 12 0 21 -2 21 -4z"/>
<path d="M2063 1690 c-75 -15 -144 -61 -191 -126 -31 -45 -55 -146 -48 -203 6
-44 6 -45 -8 -21 -8 14 -12 37 -9 51 8 42 -15 45 -32 5 -17 -40 -11 -64 19
-76 20 -7 19 -8 -9 -20 -16 -7 -40 -17 -52 -23 -32 -14 -38 -4 -19 34 20 41
21 39 -16 39 -32 1 -32 1 -13 16 11 8 19 20 17 25 -3 13 12 11 26 -3 9 -9 13
-7 18 5 3 9 10 14 15 11 20 -12 8 16 -13 30 -17 12 -24 13 -29 4 -13 -21 -21
-1 -14 34 7 30 8 31 16 12 12 -34 27 -37 45 -9 18 27 34 25 34 -6 0 -11 5 -17
10 -14 11 7 13 135 2 150 -4 6 -22 20 -41 32 -32 20 -36 20 -78 6 -49 -17 -70
-49 -79 -120 -2 -19 -7 -39 -10 -45 -3 -5 0 -15 6 -24 18 -20 40 -123 29 -129
-5 -3 -31 -13 -58 -21 -49 -14 -91 -52 -91 -80 0 -25 -55 -16 -95 16 -46 36
-49 37 -43 5 3 -13 2 -22 -3 -20 -4 3 -13 -11 -19 -31 -15 -44 -69 -75 -95
-54 -11 9 -12 16 -5 25 6 7 8 19 4 28 -6 17 11 32 21 17 3 -5 10 -10 15 -10
14 0 21 32 10 46 -9 9 -6 16 11 25 l23 12 -22 8 c-28 10 -26 41 3 51 19 6 19
6 -2 7 -28 1 -33 10 -40 68 -3 26 -11 52 -19 58 -7 5 -14 21 -16 35 -3 23 0
25 35 23 21 -1 37 2 37 9 0 7 4 7 14 -1 8 -6 20 -10 27 -9 7 2 15 -5 17 -16 3
-13 0 -16 -10 -11 -7 4 -3 -2 10 -14 12 -12 22 -29 23 -39 0 -14 2 -14 9 3 17
39 11 83 -16 114 -34 41 -61 54 -102 53 -40 -2 -117 -44 -132 -72 -16 -29 -1
-169 19 -189 9 -9 22 -29 29 -45 12 -27 11 -30 -20 -58 -18 -16 -45 -37 -60
-46 -16 -9 -28 -19 -28 -23 0 -16 126 -87 136 -76 2 1 -1 20 -6 42 -13 57 -4
55 12 -2 l14 -48 54 1 c70 1 125 17 163 45 l31 22 50 -26 c71 -36 94 -41 113
-25 9 7 14 8 10 2 -7 -13 13 -24 44 -24 24 0 37 29 18 42 -11 7 -9 8 6 6 12
-2 19 -10 17 -21 -2 -11 4 -17 16 -17 25 0 115 46 137 69 16 19 18 19 60 -14
57 -43 105 -59 180 -58 207 2 348 220 265 410 -52 122 -197 199 -327 173z
m-393 -230 c0 -5 -4 -10 -10 -10 -5 0 -10 5 -10 10 0 6 5 10 10 10 6 0 10 -4
10 -10z m338 -68 c2 -42 0 -52 -12 -52 -11 0 -16 10 -16 33 0 17 -3 43 -7 56
-5 19 -2 22 13 19 15 -2 20 -13 22 -56z m86 27 c5 -14 6 -38 2 -53 -5 -20 -12
-26 -35 -26 -31 0 -41 14 -41 59 0 54 56 69 74 20z m90 0 c5 -14 6 -38 2 -53
-5 -20 -12 -26 -35 -26 -31 0 -41 14 -41 59 0 54 56 69 74 20z m79 -9 c16 -19
16 -21 0 -40 -20 -23 -33 -26 -33 -6 0 8 -6 17 -12 20 -10 5 -10 7 0 12 6 3
12 12 12 20 0 20 13 17 33 -6z m-596 -132 c-3 -8 -6 -5 -6 6 -1 11 2 17 5 13
3 -3 4 -12 1 -19z m-300 -125 c-3 -10 -5 -2 -5 17 0 19 2 27 5 18 2 -10 2 -26
0 -35z m273 13 c41 -9 49 -14 33 -18 -12 -3 -25 -3 -28 1 -4 3 -25 11 -48 18
-57 15 -25 15 43 -1z"/>
<path d="M2044 1406 c-8 -22 3 -49 19 -43 6 2 12 14 12 27 0 27 -22 39 -31 16z"/>
<path d="M2134 1405 c-7 -18 2 -45 15 -45 12 0 24 37 16 50 -9 15 -25 12 -31
-5z"/>
<path d="M810 1629 c-8 -5 -27 -13 -42 -19 -53 -18 -87 -127 -68 -215 25 -112
28 -101 -32 -123 -100 -38 -108 -43 -97 -63 5 -10 29 -32 53 -49 38 -26 54
-30 113 -31 37 -1 60 -3 51 -6 -10 -2 -18 -9 -18 -14 0 -11 34 -12 80 -3 23 5
28 9 18 16 -8 6 -3 7 17 3 24 -4 41 1 78 26 26 17 53 39 60 49 7 10 21 19 31
21 12 3 -16 18 -70 40 -82 34 -89 35 -92 18 -8 -43 -100 -75 -156 -53 -21 8
-21 34 0 34 8 0 12 5 9 10 -8 13 -3 13 30 0 14 -5 23 -14 20 -20 -18 -30 55 5
82 40 20 24 63 168 63 208 -1 47 -15 73 -64 111 -42 34 -44 34 -66 20z m92
-96 c13 -12 17 -29 15 -74 -3 -66 -17 -90 -42 -69 -12 10 -15 10 -16 -1 0 -10
-2 -10 -5 -2 -3 7 -12 9 -20 6 -10 -4 -14 4 -14 30 l0 36 30 -17 c27 -16 30
-16 46 0 23 23 8 40 -35 37 -59 -5 -98 9 -103 36 -3 13 0 29 6 35 15 15 116 2
138 -17z m-104 -109 c-5 -29 -35 -41 -54 -22 -22 21 -10 38 27 38 23 0 30 -4
27 -16z m18 -94 c8 0 14 5 14 10 0 6 7 10 16 10 19 0 14 -20 -8 -33 -21 -14
-48 -2 -47 20 0 11 3 13 6 6 2 -7 11 -13 19 -13z"/>
<path d="M11060 1534 c0 -16 23 -34 43 -34 10 0 15 5 12 10 -4 6 -11 7 -17 4
-6 -4 -17 1 -25 11 -7 11 -13 14 -13 9z"/>
<path d="M1277 1474 c7 -3 10 -11 7 -19 -8 -19 12 -27 26 -10 10 12 10 15 -1
15 -11 0 -11 2 1 10 11 7 8 10 -15 9 -16 0 -25 -3 -18 -5z"/>
<path d="M11131 1454 c0 -12 6 -27 14 -34 10 -9 15 -9 15 -1 0 6 -4 11 -9 11
-5 0 -12 10 -14 23 -4 21 -4 21 -6 1z"/>
<path d="M11240 1350 c0 -5 5 -10 10 -10 6 0 10 5 10 10 0 6 -4 10 -10 10 -5
0 -10 -4 -10 -10z"/>
<path d="M718 1113 c7 -3 16 -2 19 1 4 3 -2 6 -13 5 -11 0 -14 -3 -6 -6z"/>
<path d="M5646 1057 c-42 -42 -42 -151 0 -198 38 -42 134 -5 134 51 0 24 -18
61 -34 72 -17 12 -71 9 -84 -4 -15 -15 -16 0 -2 36 7 18 17 26 34 26 14 0 28
-4 31 -10 8 -13 45 -13 45 -1 0 17 -52 51 -77 51 -13 0 -34 -10 -47 -23z m78
-119 c21 -30 4 -60 -32 -56 -30 3 -42 39 -22 64 17 20 36 17 54 -8z"/>
<path d="M5846 1059 c-29 -23 -34 -54 -11 -79 14 -15 14 -18 0 -30 -21 -17
-19 -73 3 -93 26 -24 104 -23 125 1 21 23 22 75 2 92 -12 10 -12 15 2 36 20
31 5 70 -33 84 -38 15 -58 12 -88 -11z m79 -49 c0 -20 -6 -26 -26 -28 -30 -4
-46 22 -28 45 20 23 54 12 54 -17z m12 -86 c9 -24 -10 -49 -37 -49 -27 0 -46
25 -37 49 9 22 65 22 74 0z"/>
<path d="M6053 1065 c-27 -19 -37 -61 -22 -97 12 -30 43 -43 85 -35 22 4 25 1
22 -22 -3 -28 -41 -42 -61 -22 -14 14 -47 14 -47 1 0 -22 41 -50 74 -50 54 0
76 36 76 122 0 60 -3 72 -25 93 -28 28 -70 32 -102 10z m75 -37 c28 -28 1 -75
-38 -63 -14 4 -20 15 -20 34 0 15 3 31 7 34 10 11 38 8 51 -5z"/>
<path d="M5450 998 c-66 -93 -65 -106 3 -110 45 -3 52 -6 55 -25 4 -30 42 -32
42 -3 0 11 7 23 15 26 8 4 15 12 15 19 0 7 -7 15 -15 19 -11 4 -15 22 -15 76
0 68 -1 70 -25 70 -19 0 -35 -16 -75 -72z m60 -33 c0 -43 -1 -45 -30 -45 -16
0 -30 2 -30 5 0 7 52 85 56 85 2 0 4 -20 4 -45z"/>
<path d="M11466 1053 c5 -5 12 -12 16 -18 4 -6 8 -2 8 8 0 9 -7 17 -17 17 -9
0 -12 -3 -7 -7z"/>
<path d="M11813 629 c-13 -13 -6 -39 9 -39 7 0 6 5 -1 13 -8 10 -7 17 1 25 7
7 10 12 7 12 -3 0 -10 -5 -16 -11z"/>
<path d="M5720 600 c0 -5 7 -10 15 -10 8 0 15 5 15 10 0 6 -7 10 -15 10 -8 0
-15 -4 -15 -10z"/>
<path d="M5407 593 c-11 -10 -8 -133 3 -133 6 0 10 13 10 29 0 26 4 30 33 33
59 6 43 78 -18 78 -12 0 -25 -3 -28 -7z m68 -23 c9 -15 -14 -40 -36 -40 -14 0
-19 7 -19 25 0 20 5 25 24 25 14 0 28 -5 31 -10z"/>
<path d="M6150 530 l0 -73 40 6 c53 7 70 22 70 61 0 46 -19 66 -68 73 l-42 6
0 -73z m87 20 c16 -32 -3 -64 -41 -68 -25 -3 -26 -2 -26 48 0 50 1 51 27 48
17 -2 32 -12 40 -28z"/>
<path d="M6023 575 c-6 -7 -8 -16 -3 -21 5 -5 10 -27 12 -49 2 -28 8 -41 21
-43 9 -2 17 1 17 7 0 6 -7 11 -15 11 -10 0 -15 11 -15 35 0 24 5 35 15 35 8 0
15 5 15 10 0 6 -6 10 -14 10 -8 0 -16 4 -18 9 -1 5 -8 3 -15 -4z"/>
<path d="M5520 514 c0 -30 5 -54 10 -54 6 0 10 18 10 40 0 27 5 43 15 46 23 9
18 19 -10 20 -24 2 -25 -1 -25 -52z"/>
<path d="M5603 544 c-15 -24 -15 -29 -2 -53 18 -32 54 -39 80 -15 24 22 24 56
1 77 -27 25 -59 21 -79 -9z m75 -32 c-2 -23 -8 -27 -33 -27 -24 0 -31 5 -33
24 -5 32 23 54 50 40 13 -7 18 -19 16 -37z"/>
<path d="M5732 504 c-1 -38 -7 -75 -14 -82 -9 -9 -9 -12 0 -12 19 0 23 21 19
96 l-3 69 -2 -71z"/>
<path d="M5787 552 c-21 -23 -21 -41 -1 -70 17 -25 56 -29 74 -7 14 17 3 20
-19 6 -9 -6 -22 -6 -33 0 -30 16 -20 29 22 29 32 0 40 4 40 18 0 41 -54 57
-83 24z m68 -23 c-8 -12 -65 -12 -65 1 0 5 8 13 17 19 20 11 57 -4 48 -20z"/>
<path d="M5918 559 c-21 -12 -24 -69 -6 -87 17 -17 53 -15 68 3 14 17 7 19
-20 5 -20 -11 -50 10 -50 35 0 25 30 46 50 35 27 -14 34 -12 20 5 -14 17 -37
19 -62 4z"/>
<path d="M6300 550 c-24 -24 -25 -38 -4 -68 18 -27 55 -29 77 -4 50 55 -21
124 -73 72z m65 -35 c0 -24 -5 -31 -24 -33 -31 -5 -45 11 -37 43 5 21 12 26
34 23 23 -2 27 -8 27 -33z"/>
<path d="M6420 513 c0 -29 5 -53 10 -53 6 0 10 21 10 46 0 44 1 45 28 42 24
-3 28 -8 33 -48 l6 -45 1 46 c2 54 -10 68 -56 67 -32 -1 -32 -1 -32 -55z"/>
<path d="M6556 554 c-21 -21 -20 -57 2 -77 23 -21 42 -21 68 -2 21 16 8 20
-15 6 -9 -6 -22 -6 -33 0 -30 16 -20 29 22 29 32 0 40 4 40 18 0 40 -54 57
-84 26z m64 -20 c0 -9 -11 -14 -30 -14 -33 0 -39 14 -13 28 21 12 43 5 43 -14z"/>
</g>
</svg>
