<svg width="19" height="15" viewBox="0 0 19 15" fill="none" xmlns="http://www.w3.org/2000/svg">
<path d="M0 6.91513H4.60836C4.52958 10.2737 3.57699 10.655 2.38057 10.7638L1.91919 10.821V14.5141L2.451 14.4856C4.01332 14.3977 5.74059 14.116 6.89297 12.6934C7.90314 11.4463 8.34848 9.40893 8.34848 6.28132V0.48584H0V6.91513Z" fill="#F07A25"/>
<path d="M10.6515 0.48584V6.91513H15.1983C15.1195 10.2737 14.1977 10.655 13.0013 10.7638L12.5707 10.821V14.5141L13.0718 14.4856C14.6341 14.3977 16.3768 14.116 17.5292 12.6934C18.5392 11.4463 18.9999 9.40893 18.9999 6.28132V0.48584H10.6515Z" fill="#F07A25"/>
</svg>
